<svg width="16" height="16" viewBox="0 0 16 16" fill="none" xmlns="http://www.w3.org/2000/svg">
<g clip-path="url(#clip0_327_2490)">
<path d="M8.00016 14.6663C11.6821 14.6663 14.6668 11.6816 14.6668 7.99967C14.6668 4.31778 11.6821 1.33301 8.00016 1.33301C4.31826 1.33301 1.3335 4.31778 1.3335 7.99967C1.3335 11.6816 4.31826 14.6663 8.00016 14.6663Z" stroke="#D1D5DB" stroke-width="2" stroke-linecap="round" stroke-linejoin="round"/>
<path d="M10 6.23567C9.64172 5.82948 9.16823 5.54201 8.64254 5.41154C8.11685 5.28106 7.5639 5.31376 7.05725 5.50528C6.5506 5.69679 6.11429 6.03805 5.80636 6.48365C5.49843 6.92924 5.3335 7.45804 5.3335 7.99967C5.3335 8.54131 5.49843 9.07011 5.80636 9.5157C6.11429 9.9613 6.5506 10.3026 7.05725 10.4941C7.5639 10.6856 8.11685 10.7183 8.64254 10.5878C9.16823 10.4573 9.64172 10.1699 10 9.76367" stroke="#D1D5DB" stroke-width="2" stroke-linecap="round" stroke-linejoin="round"/>
</g>
<defs>
<clipPath id="clip0_327_2490">
<rect width="16" height="16" fill="white"/>
</clipPath>
</defs>
</svg>
