<svg width="64" height="96" viewBox="0 0 64 96" fill="none" xmlns="http://www.w3.org/2000/svg">
<g clip-path="url(#clip0_327_2299)">
<path d="M56.2665 29.4667L34.5332 7.73342C33.8665 7.06675 32.9332 6.66675 31.9998 6.66675C31.0665 6.66675 30.1332 7.06675 29.4665 7.73342L24.7998 12.4001L30.2665 17.8667C30.7998 17.6001 31.3332 17.4667 31.9998 17.4667C34.2665 17.4667 35.9998 19.2001 35.9998 21.4667C35.9998 22.1334 35.8665 22.6667 35.5998 23.2001L40.9332 28.5334C41.4665 28.2667 41.9998 28.1334 42.6665 28.1334C44.9332 28.1334 46.6665 29.8667 46.6665 32.1334C46.6665 34.4001 44.9332 36.1334 42.6665 36.1334C40.3998 36.1334 38.6665 34.4001 38.6665 32.1334C38.6665 31.4667 38.7998 30.9334 39.0665 30.4001L33.7332 25.0667C33.5998 25.0667 33.4665 25.2001 33.3332 25.2001V39.0667C34.9332 39.6001 35.9998 41.0667 35.9998 42.8001C35.9998 45.0667 34.2665 46.8001 31.9998 46.8001C29.7332 46.8001 27.9998 45.0667 27.9998 42.8001C27.9998 41.0667 29.0665 39.6001 30.6665 39.0667V25.0667C29.0665 24.5334 27.9998 23.0667 27.9998 21.3334C27.9998 20.6667 28.1332 20.1334 28.3998 19.6001L22.9332 14.1334L7.73317 29.4667C7.0665 30.1334 6.6665 31.0667 6.6665 32.0001C6.6665 32.9334 7.0665 33.8667 7.73317 34.5334L29.4665 56.2668C30.1332 56.9334 31.0665 57.3334 31.9998 57.3334C32.9332 57.3334 33.8665 56.9334 34.5332 56.2668L56.2665 34.5334C56.9332 33.8667 57.3332 32.9334 57.3332 32.0001C57.3332 31.0667 56.9332 30.1334 56.2665 29.4667Z" fill="#F4511E"/>
<path d="M29.8636 82C29.7386 81.6174 29.5739 81.2746 29.3693 80.9716C29.1686 80.6648 28.928 80.4034 28.6477 80.1875C28.3712 79.9716 28.0568 79.8068 27.7045 79.6932C27.3523 79.5795 26.9659 79.5227 26.5455 79.5227C25.8561 79.5227 25.2292 79.7008 24.6648 80.0568C24.1004 80.4129 23.6515 80.9375 23.3182 81.6307C22.9848 82.3239 22.8182 83.1742 22.8182 84.1818C22.8182 85.1894 22.9867 86.0398 23.3239 86.733C23.661 87.4261 24.1174 87.9508 24.6932 88.3068C25.2689 88.6629 25.9167 88.8409 26.6364 88.8409C27.303 88.8409 27.8902 88.6989 28.3977 88.4148C28.9091 88.1269 29.3068 87.7216 29.5909 87.1989C29.8788 86.6723 30.0227 86.053 30.0227 85.3409L30.4545 85.4318H26.9545V84.1818H31.3864V85.4318C31.3864 86.3902 31.1818 87.2235 30.7727 87.9318C30.3674 88.6402 29.8068 89.1894 29.0909 89.5795C28.3788 89.9659 27.5606 90.1591 26.6364 90.1591C25.6061 90.1591 24.7008 89.9167 23.9205 89.4318C23.1439 88.947 22.5379 88.2576 22.1023 87.3636C21.6705 86.4697 21.4545 85.4091 21.4545 84.1818C21.4545 83.2614 21.5777 82.4337 21.8239 81.6989C22.0739 80.9602 22.4261 80.3314 22.8807 79.8125C23.3352 79.2936 23.8731 78.8958 24.4943 78.6193C25.1155 78.3428 25.7992 78.2045 26.5455 78.2045C27.1591 78.2045 27.7311 78.2973 28.2614 78.483C28.7955 78.6648 29.2708 78.9242 29.6875 79.2614C30.108 79.5947 30.4583 79.9943 30.7386 80.4602C31.0189 80.9223 31.2121 81.4356 31.3182 82H29.8636ZM34.1648 90V81.2727H35.5057V90H34.1648ZM34.8466 79.8182C34.5852 79.8182 34.3598 79.7292 34.1705 79.5511C33.9848 79.3731 33.892 79.1591 33.892 78.9091C33.892 78.6591 33.9848 78.4451 34.1705 78.267C34.3598 78.089 34.5852 78 34.8466 78C35.108 78 35.3314 78.089 35.517 78.267C35.7064 78.4451 35.8011 78.6591 35.8011 78.9091C35.8011 79.1591 35.7064 79.3731 35.517 79.5511C35.3314 79.7292 35.108 79.8182 34.8466 79.8182ZM41.7571 81.2727V82.4091H37.2344V81.2727H41.7571ZM38.5526 79.1818H39.8935V87.5C39.8935 87.8788 39.9484 88.1629 40.0582 88.3523C40.1719 88.5379 40.3158 88.6629 40.4901 88.7273C40.6681 88.7879 40.8556 88.8182 41.0526 88.8182C41.2003 88.8182 41.3215 88.8106 41.4162 88.7955C41.5109 88.7765 41.5866 88.7614 41.6435 88.75L41.9162 89.9545C41.8253 89.9886 41.6984 90.0227 41.5355 90.0568C41.3726 90.0947 41.1662 90.1136 40.9162 90.1136C40.5374 90.1136 40.1662 90.0322 39.8026 89.8693C39.4427 89.7064 39.1435 89.4583 38.9048 89.125C38.67 88.7917 38.5526 88.3712 38.5526 87.8636V79.1818Z" fill="#D1D5DB"/>
</g>
<defs>
<clipPath id="clip0_327_2299">
<rect width="64" height="96" fill="white"/>
</clipPath>
</defs>
</svg>
