<svg width="343" height="56" viewBox="0 0 343 56" fill="none" xmlns="http://www.w3.org/2000/svg">
<path d="M20 10C20 16 12 22 12 22C12 22 4 16 4 10C4 7.87827 4.84285 5.84344 6.34315 4.34315C7.84344 2.84285 9.87827 2 12 2C14.1217 2 16.1566 2.84285 17.6569 4.34315C19.1571 5.84344 20 7.87827 20 10Z" stroke="#D1D5DB" stroke-width="2" stroke-linecap="round" stroke-linejoin="round"/>
<path d="M12 13C13.6569 13 15 11.6569 15 10C15 8.34315 13.6569 7 12 7C10.3431 7 9 8.34315 9 10C9 11.6569 10.3431 13 12 13Z" stroke="#D1D5DB" stroke-width="2" stroke-linecap="round" stroke-linejoin="round"/>
<path d="M33.8864 18H32.4091L36.6818 6.36364H38.1364L42.4091 18H40.9318L37.4545 8.20455H37.3636L33.8864 18ZM34.4318 13.4545H40.3864V14.7045H34.4318V13.4545ZM45.3807 12.75V18H44.0398V6.36364H45.3807V10.6364H45.4943C45.6989 10.1856 46.0057 9.82765 46.4148 9.5625C46.8277 9.29356 47.3769 9.15909 48.0625 9.15909C48.6572 9.15909 49.178 9.27841 49.625 9.51705C50.072 9.75189 50.4186 10.1136 50.6648 10.6023C50.9148 11.0871 51.0398 11.7045 51.0398 12.4545V18H49.6989V12.5455C49.6989 11.8523 49.5189 11.3163 49.1591 10.9375C48.803 10.5549 48.3087 10.3636 47.6761 10.3636C47.2367 10.3636 46.8428 10.4564 46.4943 10.642C46.1496 10.8277 45.8769 11.0985 45.6761 11.4545C45.4792 11.8106 45.3807 12.2424 45.3807 12.75ZM53.4929 18V9.27273H54.7884V10.6364H54.902C55.0838 10.1705 55.3774 9.80871 55.7827 9.55114C56.188 9.28977 56.6747 9.15909 57.2429 9.15909C57.8187 9.15909 58.2978 9.28977 58.6804 9.55114C59.0668 9.80871 59.3679 10.1705 59.5838 10.6364H59.6747C59.8982 10.1856 60.2334 9.82765 60.6804 9.5625C61.1274 9.29356 61.6634 9.15909 62.2884 9.15909C63.0687 9.15909 63.7069 9.40341 64.2031 9.89205C64.6993 10.3769 64.9474 11.1326 64.9474 12.1591V18H63.6065V12.1591C63.6065 11.5152 63.4304 11.0549 63.0781 10.7784C62.7259 10.5019 62.3111 10.3636 61.8338 10.3636C61.2202 10.3636 60.7448 10.5492 60.4077 10.9205C60.0705 11.2879 59.902 11.7538 59.902 12.3182V18H58.5384V12.0227C58.5384 11.5265 58.3774 11.1269 58.0554 10.8239C57.7334 10.517 57.3187 10.3636 56.8111 10.3636C56.4626 10.3636 56.1368 10.4564 55.8338 10.642C55.5346 10.8277 55.2921 11.0852 55.1065 11.4148C54.9247 11.7405 54.8338 12.1174 54.8338 12.5455V18H53.4929ZM71.0582 18.1818C70.2173 18.1818 69.492 17.9962 68.8821 17.625C68.276 17.25 67.8082 16.7273 67.4787 16.0568C67.1529 15.3826 66.9901 14.5985 66.9901 13.7045C66.9901 12.8106 67.1529 12.0227 67.4787 11.3409C67.8082 10.6553 68.2666 10.1212 68.8537 9.73864C69.4446 9.35227 70.134 9.15909 70.9219 9.15909C71.3764 9.15909 71.8253 9.23485 72.2685 9.38636C72.7116 9.53788 73.1151 9.78409 73.4787 10.125C73.8423 10.4621 74.1321 10.9091 74.348 11.4659C74.5639 12.0227 74.6719 12.7083 74.6719 13.5227V14.0909H67.9446V12.9318H73.3082C73.3082 12.4394 73.2098 12 73.0128 11.6136C72.8196 11.2273 72.5431 10.9223 72.1832 10.6989C71.8272 10.4754 71.4067 10.3636 70.9219 10.3636C70.3878 10.3636 69.9257 10.4962 69.5355 10.7614C69.1491 11.0227 68.8518 11.3636 68.6435 11.7841C68.4351 12.2045 68.331 12.6553 68.331 13.1364V13.9091C68.331 14.5682 68.4446 15.1269 68.6719 15.5852C68.9029 16.0398 69.223 16.3864 69.6321 16.625C70.0412 16.8598 70.5166 16.9773 71.0582 16.9773C71.4105 16.9773 71.7287 16.928 72.0128 16.8295C72.3007 16.7273 72.5488 16.5758 72.7571 16.375C72.9654 16.1705 73.1264 15.9167 73.2401 15.6136L74.5355 15.9773C74.3991 16.4167 74.17 16.803 73.848 17.1364C73.526 17.4659 73.1283 17.7235 72.6548 17.9091C72.1813 18.0909 71.6491 18.1818 71.0582 18.1818ZM80.0071 18.1818C79.2798 18.1818 78.6378 17.9981 78.081 17.6307C77.5241 17.2595 77.0885 16.7367 76.7741 16.0625C76.4598 15.3845 76.3026 14.5833 76.3026 13.6591C76.3026 12.7424 76.4598 11.947 76.7741 11.2727C77.0885 10.5985 77.526 10.0777 78.0866 9.71023C78.6473 9.3428 79.295 9.15909 80.0298 9.15909C80.598 9.15909 81.0469 9.25379 81.3764 9.44318C81.7098 9.62879 81.9635 9.84091 82.1378 10.0795C82.3158 10.3144 82.4541 10.5076 82.5526 10.6591H82.6662V6.36364H84.0071V18H82.7116V16.6591H82.5526C82.4541 16.8182 82.3139 17.0189 82.1321 17.2614C81.9503 17.5 81.6908 17.714 81.3537 17.9034C81.0166 18.089 80.5677 18.1818 80.0071 18.1818ZM80.1889 16.9773C80.7268 16.9773 81.1813 16.8371 81.5526 16.5568C81.9238 16.2727 82.206 15.8807 82.3991 15.3807C82.5923 14.8769 82.6889 14.2955 82.6889 13.6364C82.6889 12.9848 82.5942 12.4148 82.4048 11.9261C82.2154 11.4337 81.9351 11.0511 81.5639 10.7784C81.1927 10.5019 80.7344 10.3636 80.1889 10.3636C79.6207 10.3636 79.1473 10.5095 78.7685 10.8011C78.3935 11.089 78.1113 11.4811 77.9219 11.9773C77.7363 12.4697 77.6435 13.0227 77.6435 13.6364C77.6435 14.2576 77.7382 14.822 77.9276 15.3295C78.1207 15.8333 78.4048 16.2348 78.7798 16.5341C79.1586 16.8295 79.6283 16.9773 80.1889 16.9773ZM89.2173 18.2045C88.6643 18.2045 88.1624 18.1004 87.7116 17.892C87.2609 17.6799 86.9029 17.375 86.6378 16.9773C86.3726 16.5758 86.2401 16.0909 86.2401 15.5227C86.2401 15.0227 86.3385 14.6174 86.5355 14.3068C86.7325 13.9924 86.9957 13.7462 87.3253 13.5682C87.6548 13.3902 88.0185 13.2576 88.4162 13.1705C88.8177 13.0795 89.2211 13.0076 89.6264 12.9545C90.1567 12.8864 90.5866 12.8352 90.9162 12.8011C91.2495 12.7633 91.492 12.7008 91.6435 12.6136C91.7988 12.5265 91.8764 12.375 91.8764 12.1591V12.1136C91.8764 11.553 91.723 11.1174 91.4162 10.8068C91.1132 10.4962 90.6529 10.3409 90.0355 10.3409C89.3954 10.3409 88.8935 10.4811 88.5298 10.7614C88.1662 11.0417 87.9105 11.3409 87.7628 11.6591L86.4901 11.2045C86.7173 10.6742 87.0204 10.2614 87.3991 9.96591C87.7817 9.66667 88.1984 9.45833 88.6491 9.34091C89.1037 9.2197 89.5507 9.15909 89.9901 9.15909C90.2704 9.15909 90.5923 9.19318 90.956 9.26136C91.3234 9.32576 91.6776 9.46023 92.0185 9.66477C92.3632 9.86932 92.6491 10.178 92.8764 10.5909C93.1037 11.0038 93.2173 11.5568 93.2173 12.25V18H91.8764V16.8182H91.8082C91.7173 17.0076 91.5658 17.2102 91.3537 17.4261C91.1416 17.642 90.8594 17.8258 90.5071 17.9773C90.1548 18.1288 89.7249 18.2045 89.2173 18.2045ZM89.4219 17C89.9522 17 90.3991 16.8958 90.7628 16.6875C91.1302 16.4792 91.4067 16.2102 91.5923 15.8807C91.7817 15.5511 91.8764 15.2045 91.8764 14.8409V13.6136C91.8196 13.6818 91.6946 13.7443 91.5014 13.8011C91.312 13.8542 91.0923 13.9015 90.8423 13.9432C90.5961 13.9811 90.3556 14.0152 90.1207 14.0455C89.8897 14.072 89.7022 14.0947 89.5582 14.1136C89.2098 14.1591 88.884 14.233 88.581 14.3352C88.2817 14.4337 88.0393 14.5833 87.8537 14.7841C87.6719 14.9811 87.581 15.25 87.581 15.5909C87.581 16.0568 87.7533 16.4091 88.098 16.6477C88.4465 16.8826 88.8878 17 89.4219 17ZM95.8466 18V6.36364H97.1875V10.6591H97.3011C97.3996 10.5076 97.536 10.3144 97.7102 10.0795C97.8883 9.84091 98.142 9.62879 98.4716 9.44318C98.8049 9.25379 99.2557 9.15909 99.8239 9.15909C100.559 9.15909 101.206 9.3428 101.767 9.71023C102.328 10.0777 102.765 10.5985 103.08 11.2727C103.394 11.947 103.551 12.7424 103.551 13.6591C103.551 14.5833 103.394 15.3845 103.08 16.0625C102.765 16.7367 102.33 17.2595 101.773 17.6307C101.216 17.9981 100.574 18.1818 99.8466 18.1818C99.286 18.1818 98.8371 18.089 98.5 17.9034C98.1629 17.714 97.9034 17.5 97.7216 17.2614C97.5398 17.0189 97.3996 16.8182 97.3011 16.6591H97.142V18H95.8466ZM97.1648 13.6364C97.1648 14.2955 97.2614 14.8769 97.4545 15.3807C97.6477 15.8807 97.9299 16.2727 98.3011 16.5568C98.6723 16.8371 99.1269 16.9773 99.6648 16.9773C100.225 16.9773 100.693 16.8295 101.068 16.5341C101.447 16.2348 101.731 15.8333 101.92 15.3295C102.114 14.822 102.21 14.2576 102.21 13.6364C102.21 13.0227 102.116 12.4697 101.926 11.9773C101.741 11.4811 101.458 11.089 101.08 10.8011C100.705 10.5095 100.233 10.3636 99.6648 10.3636C99.1193 10.3636 98.661 10.5019 98.2898 10.7784C97.9186 11.0511 97.6383 11.4337 97.4489 11.9261C97.2595 12.4148 97.1648 12.9848 97.1648 13.6364ZM108.17 18.2045C107.617 18.2045 107.116 18.1004 106.665 17.892C106.214 17.6799 105.856 17.375 105.591 16.9773C105.326 16.5758 105.193 16.0909 105.193 15.5227C105.193 15.0227 105.292 14.6174 105.489 14.3068C105.686 13.9924 105.949 13.7462 106.278 13.5682C106.608 13.3902 106.972 13.2576 107.369 13.1705C107.771 13.0795 108.174 13.0076 108.58 12.9545C109.11 12.8864 109.54 12.8352 109.869 12.8011C110.203 12.7633 110.445 12.7008 110.597 12.6136C110.752 12.5265 110.83 12.375 110.83 12.1591V12.1136C110.83 11.553 110.676 11.1174 110.369 10.8068C110.066 10.4962 109.606 10.3409 108.989 10.3409C108.348 10.3409 107.847 10.4811 107.483 10.7614C107.119 11.0417 106.864 11.3409 106.716 11.6591L105.443 11.2045C105.67 10.6742 105.973 10.2614 106.352 9.96591C106.735 9.66667 107.152 9.45833 107.602 9.34091C108.057 9.2197 108.504 9.15909 108.943 9.15909C109.223 9.15909 109.545 9.19318 109.909 9.26136C110.277 9.32576 110.631 9.46023 110.972 9.66477C111.316 9.86932 111.602 10.178 111.83 10.5909C112.057 11.0038 112.17 11.5568 112.17 12.25V18H110.83V16.8182H110.761C110.67 17.0076 110.519 17.2102 110.307 17.4261C110.095 17.642 109.813 17.8258 109.46 17.9773C109.108 18.1288 108.678 18.2045 108.17 18.2045ZM108.375 17C108.905 17 109.352 16.8958 109.716 16.6875C110.083 16.4792 110.36 16.2102 110.545 15.8807C110.735 15.5511 110.83 15.2045 110.83 14.8409V13.6136C110.773 13.6818 110.648 13.7443 110.455 13.8011C110.265 13.8542 110.045 13.9015 109.795 13.9432C109.549 13.9811 109.309 14.0152 109.074 14.0455C108.843 14.072 108.655 14.0947 108.511 14.1136C108.163 14.1591 107.837 14.233 107.534 14.3352C107.235 14.4337 106.992 14.5833 106.807 14.7841C106.625 14.9811 106.534 15.25 106.534 15.5909C106.534 16.0568 106.706 16.4091 107.051 16.6477C107.4 16.8826 107.841 17 108.375 17ZM117.913 18.1818C117.186 18.1818 116.544 17.9981 115.987 17.6307C115.43 17.2595 114.995 16.7367 114.68 16.0625C114.366 15.3845 114.209 14.5833 114.209 13.6591C114.209 12.7424 114.366 11.947 114.68 11.2727C114.995 10.5985 115.432 10.0777 115.993 9.71023C116.554 9.3428 117.201 9.15909 117.936 9.15909C118.504 9.15909 118.953 9.25379 119.283 9.44318C119.616 9.62879 119.87 9.84091 120.044 10.0795C120.222 10.3144 120.36 10.5076 120.459 10.6591H120.572V6.36364H121.913V18H120.618V16.6591H120.459C120.36 16.8182 120.22 17.0189 120.038 17.2614C119.857 17.5 119.597 17.714 119.26 17.9034C118.923 18.089 118.474 18.1818 117.913 18.1818ZM118.095 16.9773C118.633 16.9773 119.088 16.8371 119.459 16.5568C119.83 16.2727 120.112 15.8807 120.305 15.3807C120.499 14.8769 120.595 14.2955 120.595 13.6364C120.595 12.9848 120.5 12.4148 120.311 11.9261C120.122 11.4337 119.841 11.0511 119.47 10.7784C119.099 10.5019 118.641 10.3636 118.095 10.3636C117.527 10.3636 117.054 10.5095 116.675 10.8011C116.3 11.089 116.018 11.4811 115.828 11.9773C115.643 12.4697 115.55 13.0227 115.55 13.6364C115.55 14.2576 115.644 14.822 115.834 15.3295C116.027 15.8333 116.311 16.2348 116.686 16.5341C117.065 16.8295 117.535 16.9773 118.095 16.9773ZM126.555 16.4091L126.464 17.0227C126.4 17.4545 126.302 17.9167 126.169 18.4091C126.04 18.9015 125.906 19.3655 125.766 19.8011C125.625 20.2367 125.51 20.5833 125.419 20.8409H124.396C124.446 20.5985 124.51 20.2784 124.589 19.8807C124.669 19.483 124.749 19.0379 124.828 18.5455C124.911 18.0568 124.98 17.5568 125.033 17.0455L125.101 16.4091H126.555ZM135.131 6.36364V18H133.722V6.36364H135.131ZM139.115 12.75V18H137.774V9.27273H139.07V10.6364H139.183C139.388 10.1932 139.698 9.83712 140.115 9.56818C140.532 9.29545 141.07 9.15909 141.729 9.15909C142.32 9.15909 142.837 9.2803 143.28 9.52273C143.723 9.76136 144.068 10.125 144.314 10.6136C144.56 11.0985 144.683 11.7121 144.683 12.4545V18H143.342V12.5455C143.342 11.8598 143.164 11.3258 142.808 10.9432C142.452 10.5568 141.964 10.3636 141.342 10.3636C140.914 10.3636 140.532 10.4564 140.195 10.642C139.861 10.8277 139.598 11.0985 139.405 11.4545C139.212 11.8106 139.115 12.2424 139.115 12.75ZM150.429 18.1818C149.702 18.1818 149.06 17.9981 148.503 17.6307C147.946 17.2595 147.51 16.7367 147.196 16.0625C146.882 15.3845 146.724 14.5833 146.724 13.6591C146.724 12.7424 146.882 11.947 147.196 11.2727C147.51 10.5985 147.948 10.0777 148.509 9.71023C149.069 9.3428 149.717 9.15909 150.452 9.15909C151.02 9.15909 151.469 9.25379 151.798 9.44318C152.132 9.62879 152.385 9.84091 152.56 10.0795C152.738 10.3144 152.876 10.5076 152.974 10.6591H153.088V6.36364H154.429V18H153.134V16.6591H152.974C152.876 16.8182 152.736 17.0189 152.554 17.2614C152.372 17.5 152.113 17.714 151.776 17.9034C151.438 18.089 150.99 18.1818 150.429 18.1818ZM150.611 16.9773C151.149 16.9773 151.603 16.8371 151.974 16.5568C152.346 16.2727 152.628 15.8807 152.821 15.3807C153.014 14.8769 153.111 14.2955 153.111 13.6364C153.111 12.9848 153.016 12.4148 152.827 11.9261C152.637 11.4337 152.357 11.0511 151.986 10.7784C151.615 10.5019 151.156 10.3636 150.611 10.3636C150.043 10.3636 149.569 10.5095 149.19 10.8011C148.815 11.089 148.533 11.4811 148.344 11.9773C148.158 12.4697 148.065 13.0227 148.065 13.6364C148.065 14.2576 148.16 14.822 148.349 15.3295C148.543 15.8333 148.827 16.2348 149.202 16.5341C149.58 16.8295 150.05 16.9773 150.611 16.9773ZM157.071 18V9.27273H158.412V18H157.071ZM157.753 7.81818C157.491 7.81818 157.266 7.72917 157.077 7.55114C156.891 7.37311 156.798 7.15909 156.798 6.90909C156.798 6.65909 156.891 6.44508 157.077 6.26705C157.266 6.08902 157.491 6 157.753 6C158.014 6 158.238 6.08902 158.423 6.26705C158.613 6.44508 158.707 6.65909 158.707 6.90909C158.707 7.15909 158.613 7.37311 158.423 7.55114C158.238 7.72917 158.014 7.81818 157.753 7.81818ZM163.436 18.2045C162.883 18.2045 162.381 18.1004 161.93 17.892C161.48 17.6799 161.122 17.375 160.857 16.9773C160.591 16.5758 160.459 16.0909 160.459 15.5227C160.459 15.0227 160.557 14.6174 160.754 14.3068C160.951 13.9924 161.214 13.7462 161.544 13.5682C161.874 13.3902 162.237 13.2576 162.635 13.1705C163.036 13.0795 163.44 13.0076 163.845 12.9545C164.375 12.8864 164.805 12.8352 165.135 12.8011C165.468 12.7633 165.711 12.7008 165.862 12.6136C166.018 12.5265 166.095 12.375 166.095 12.1591V12.1136C166.095 11.553 165.942 11.1174 165.635 10.8068C165.332 10.4962 164.872 10.3409 164.254 10.3409C163.614 10.3409 163.112 10.4811 162.749 10.7614C162.385 11.0417 162.129 11.3409 161.982 11.6591L160.709 11.2045C160.936 10.6742 161.239 10.2614 161.618 9.96591C162 9.66667 162.417 9.45833 162.868 9.34091C163.322 9.2197 163.769 9.15909 164.209 9.15909C164.489 9.15909 164.811 9.19318 165.175 9.26136C165.542 9.32576 165.896 9.46023 166.237 9.66477C166.582 9.86932 166.868 10.178 167.095 10.5909C167.322 11.0038 167.436 11.5568 167.436 12.25V18H166.095V16.8182H166.027C165.936 17.0076 165.785 17.2102 165.572 17.4261C165.36 17.642 165.078 17.8258 164.726 17.9773C164.374 18.1288 163.944 18.2045 163.436 18.2045ZM163.641 17C164.171 17 164.618 16.8958 164.982 16.6875C165.349 16.4792 165.625 16.2102 165.811 15.8807C166 15.5511 166.095 15.2045 166.095 14.8409V13.6136C166.038 13.6818 165.913 13.7443 165.72 13.8011C165.531 13.8542 165.311 13.9015 165.061 13.9432C164.815 13.9811 164.574 14.0152 164.339 14.0455C164.108 14.072 163.921 14.0947 163.777 14.1136C163.429 14.1591 163.103 14.233 162.8 14.3352C162.5 14.4337 162.258 14.5833 162.072 14.7841C161.891 14.9811 161.8 15.25 161.8 15.5909C161.8 16.0568 161.972 16.4091 162.317 16.6477C162.665 16.8826 163.107 17 163.641 17Z" fill="#D1D5DB"/>
<rect x="8" y="40" width="8" height="8" rx="4" fill="#10B981"/>
<path d="M33.8864 50H32.4091L36.6818 38.3636H38.1364L42.4091 50H40.9318L37.4545 40.2045H37.3636L33.8864 50ZM34.4318 45.4545H40.3864V46.7045H34.4318V45.4545ZM50.0824 41.2727L46.8551 50H45.4915L42.2642 41.2727H43.7188L46.1278 48.2273H46.2188L48.6278 41.2727H50.0824ZM54.1548 50.2045C53.6018 50.2045 53.0999 50.1004 52.6491 49.892C52.1984 49.6799 51.8404 49.375 51.5753 48.9773C51.3101 48.5758 51.1776 48.0909 51.1776 47.5227C51.1776 47.0227 51.276 46.6174 51.473 46.3068C51.67 45.9924 51.9332 45.7462 52.2628 45.5682C52.5923 45.3902 52.956 45.2576 53.3537 45.1705C53.7552 45.0795 54.1586 45.0076 54.5639 44.9545C55.0942 44.8864 55.5241 44.8352 55.8537 44.8011C56.187 44.7633 56.4295 44.7008 56.581 44.6136C56.7363 44.5265 56.8139 44.375 56.8139 44.1591V44.1136C56.8139 43.553 56.6605 43.1174 56.3537 42.8068C56.0507 42.4962 55.5904 42.3409 54.973 42.3409C54.3329 42.3409 53.831 42.4811 53.4673 42.7614C53.1037 43.0417 52.848 43.3409 52.7003 43.6591L51.4276 43.2045C51.6548 42.6742 51.9579 42.2614 52.3366 41.9659C52.7192 41.6667 53.1359 41.4583 53.5866 41.3409C54.0412 41.2197 54.4882 41.1591 54.9276 41.1591C55.2079 41.1591 55.5298 41.1932 55.8935 41.2614C56.2609 41.3258 56.6151 41.4602 56.956 41.6648C57.3007 41.8693 57.5866 42.178 57.8139 42.5909C58.0412 43.0038 58.1548 43.5568 58.1548 44.25V50H56.8139V48.8182H56.7457C56.6548 49.0076 56.5033 49.2102 56.2912 49.4261C56.0791 49.642 55.7969 49.8258 55.4446 49.9773C55.0923 50.1288 54.6624 50.2045 54.1548 50.2045ZM54.3594 49C54.8897 49 55.3366 48.8958 55.7003 48.6875C56.0677 48.4792 56.3442 48.2102 56.5298 47.8807C56.7192 47.5511 56.8139 47.2045 56.8139 46.8409V45.6136C56.7571 45.6818 56.6321 45.7443 56.4389 45.8011C56.2495 45.8542 56.0298 45.9015 55.7798 45.9432C55.5336 45.9811 55.2931 46.0152 55.0582 46.0455C54.8272 46.072 54.6397 46.0947 54.4957 46.1136C54.1473 46.1591 53.8215 46.233 53.5185 46.3352C53.2192 46.4337 52.9768 46.5833 52.7912 46.7841C52.6094 46.9811 52.5185 47.25 52.5185 47.5909C52.5185 48.0568 52.6908 48.4091 53.0355 48.6477C53.384 48.8826 53.8253 49 54.3594 49ZM60.6023 50V41.2727H61.9432V50H60.6023ZM61.2841 39.8182C61.0227 39.8182 60.7973 39.7292 60.608 39.5511C60.4223 39.3731 60.3295 39.1591 60.3295 38.9091C60.3295 38.6591 60.4223 38.4451 60.608 38.267C60.7973 38.089 61.0227 38 61.2841 38C61.5455 38 61.7689 38.089 61.9545 38.267C62.1439 38.4451 62.2386 38.6591 62.2386 38.9091C62.2386 39.1591 62.1439 39.3731 61.9545 39.5511C61.7689 39.7292 61.5455 39.8182 61.2841 39.8182ZM65.7401 38.3636V50H64.3991V38.3636H65.7401ZM70.7642 50.2045C70.2112 50.2045 69.7093 50.1004 69.2585 49.892C68.8078 49.6799 68.4498 49.375 68.1847 48.9773C67.9195 48.5758 67.7869 48.0909 67.7869 47.5227C67.7869 47.0227 67.8854 46.6174 68.0824 46.3068C68.2794 45.9924 68.5426 45.7462 68.8722 45.5682C69.2017 45.3902 69.5653 45.2576 69.9631 45.1705C70.3646 45.0795 70.768 45.0076 71.1733 44.9545C71.7036 44.8864 72.1335 44.8352 72.4631 44.8011C72.7964 44.7633 73.0388 44.7008 73.1903 44.6136C73.3456 44.5265 73.4233 44.375 73.4233 44.1591V44.1136C73.4233 43.553 73.2699 43.1174 72.9631 42.8068C72.66 42.4962 72.1998 42.3409 71.5824 42.3409C70.9422 42.3409 70.4403 42.4811 70.0767 42.7614C69.7131 43.0417 69.4574 43.3409 69.3097 43.6591L68.0369 43.2045C68.2642 42.6742 68.5672 42.2614 68.946 41.9659C69.3286 41.6667 69.7453 41.4583 70.196 41.3409C70.6506 41.2197 71.0975 41.1591 71.5369 41.1591C71.8172 41.1591 72.1392 41.1932 72.5028 41.2614C72.8703 41.3258 73.2244 41.4602 73.5653 41.6648C73.91 41.8693 74.196 42.178 74.4233 42.5909C74.6506 43.0038 74.7642 43.5568 74.7642 44.25V50H73.4233V48.8182H73.3551C73.2642 49.0076 73.1127 49.2102 72.9006 49.4261C72.6884 49.642 72.4063 49.8258 72.054 49.9773C71.7017 50.1288 71.2718 50.2045 70.7642 50.2045ZM70.9688 49C71.4991 49 71.946 48.8958 72.3097 48.6875C72.6771 48.4792 72.9536 48.2102 73.1392 47.8807C73.3286 47.5511 73.4233 47.2045 73.4233 46.8409V45.6136C73.3665 45.6818 73.2415 45.7443 73.0483 45.8011C72.8589 45.8542 72.6392 45.9015 72.3892 45.9432C72.143 45.9811 71.9025 46.0152 71.6676 46.0455C71.4366 46.072 71.2491 46.0947 71.1051 46.1136C70.7566 46.1591 70.4309 46.233 70.1278 46.3352C69.8286 46.4337 69.5862 46.5833 69.4006 46.7841C69.2188 46.9811 69.1278 47.25 69.1278 47.5909C69.1278 48.0568 69.3002 48.4091 69.6449 48.6477C69.9934 48.8826 70.4347 49 70.9688 49ZM77.3935 50V38.3636H78.7344V42.6591H78.848C78.9465 42.5076 79.0829 42.3144 79.2571 42.0795C79.4351 41.8409 79.6889 41.6288 80.0185 41.4432C80.3518 41.2538 80.8026 41.1591 81.3707 41.1591C82.1056 41.1591 82.7533 41.3428 83.3139 41.7102C83.8745 42.0777 84.312 42.5985 84.6264 43.2727C84.9408 43.947 85.098 44.7424 85.098 45.6591C85.098 46.5833 84.9408 47.3845 84.6264 48.0625C84.312 48.7367 83.8764 49.2595 83.3196 49.6307C82.7628 49.9981 82.1207 50.1818 81.3935 50.1818C80.8329 50.1818 80.384 50.089 80.0469 49.9034C79.7098 49.714 79.4503 49.5 79.2685 49.2614C79.0866 49.0189 78.9465 48.8182 78.848 48.6591H78.6889V50H77.3935ZM78.7116 45.6364C78.7116 46.2955 78.8082 46.8769 79.0014 47.3807C79.1946 47.8807 79.4768 48.2727 79.848 48.5568C80.2192 48.8371 80.6738 48.9773 81.2116 48.9773C81.7723 48.9773 82.2401 48.8295 82.6151 48.5341C82.9938 48.2348 83.2779 47.8333 83.4673 47.3295C83.6605 46.822 83.7571 46.2576 83.7571 45.6364C83.7571 45.0227 83.6624 44.4697 83.473 43.9773C83.2874 43.4811 83.0052 43.089 82.6264 42.8011C82.2514 42.5095 81.7798 42.3636 81.2116 42.3636C80.6662 42.3636 80.2079 42.5019 79.8366 42.7784C79.4654 43.0511 79.1851 43.4337 78.9957 43.9261C78.8063 44.4148 78.7116 44.9848 78.7116 45.6364ZM88.4901 38.3636V50H87.1491V38.3636H88.4901ZM94.6051 50.1818C93.7642 50.1818 93.0388 49.9962 92.429 49.625C91.8229 49.25 91.3551 48.7273 91.0256 48.0568C90.6998 47.3826 90.5369 46.5985 90.5369 45.7045C90.5369 44.8106 90.6998 44.0227 91.0256 43.3409C91.3551 42.6553 91.8134 42.1212 92.4006 41.7386C92.9915 41.3523 93.6809 41.1591 94.4688 41.1591C94.9233 41.1591 95.3722 41.2348 95.8153 41.3864C96.2585 41.5379 96.6619 41.7841 97.0256 42.125C97.3892 42.4621 97.679 42.9091 97.8949 43.4659C98.1108 44.0227 98.2188 44.7083 98.2188 45.5227V46.0909H91.4915V44.9318H96.8551C96.8551 44.4394 96.7566 44 96.5597 43.6136C96.3665 43.2273 96.09 42.9223 95.7301 42.6989C95.3741 42.4754 94.9536 42.3636 94.4688 42.3636C93.9347 42.3636 93.4725 42.4962 93.0824 42.7614C92.696 43.0227 92.3987 43.3636 92.1903 43.7841C91.982 44.2045 91.8778 44.6553 91.8778 45.1364V45.9091C91.8778 46.5682 91.9915 47.1269 92.2188 47.5852C92.4498 48.0398 92.7699 48.3864 93.179 48.625C93.5881 48.8598 94.0634 48.9773 94.6051 48.9773C94.9574 48.9773 95.2756 48.928 95.5597 48.8295C95.8475 48.7273 96.0956 48.5758 96.304 48.375C96.5123 48.1705 96.6733 47.9167 96.7869 47.6136L98.0824 47.9773C97.946 48.4167 97.7169 48.803 97.3949 49.1364C97.0729 49.4659 96.6752 49.7235 96.2017 49.9091C95.7282 50.0909 95.196 50.1818 94.6051 50.1818ZM108.645 41.2727V42.4091H103.94V41.2727H108.645ZM105.349 50V40.0682C105.349 39.5682 105.467 39.1515 105.702 38.8182C105.937 38.4848 106.241 38.2348 106.616 38.0682C106.991 37.9015 107.387 37.8182 107.804 37.8182C108.134 37.8182 108.402 37.8447 108.611 37.8977C108.819 37.9508 108.974 38 109.077 38.0455L108.69 39.2045C108.622 39.1818 108.527 39.1534 108.406 39.1193C108.289 39.0852 108.134 39.0682 107.94 39.0682C107.497 39.0682 107.177 39.1799 106.98 39.4034C106.787 39.6269 106.69 39.9545 106.69 40.3864V50H105.349ZM113.71 50.1818C112.922 50.1818 112.231 49.9943 111.636 49.6193C111.045 49.2443 110.583 48.7197 110.25 48.0455C109.92 47.3712 109.756 46.5833 109.756 45.6818C109.756 44.7727 109.92 43.9792 110.25 43.3011C110.583 42.6231 111.045 42.0966 111.636 41.7216C112.231 41.3466 112.922 41.1591 113.71 41.1591C114.498 41.1591 115.188 41.3466 115.778 41.7216C116.373 42.0966 116.835 42.6231 117.165 43.3011C117.498 43.9792 117.665 44.7727 117.665 45.6818C117.665 46.5833 117.498 47.3712 117.165 48.0455C116.835 48.7197 116.373 49.2443 115.778 49.6193C115.188 49.9943 114.498 50.1818 113.71 50.1818ZM113.71 48.9773C114.309 48.9773 114.801 48.8239 115.188 48.517C115.574 48.2102 115.86 47.8068 116.045 47.3068C116.231 46.8068 116.324 46.2652 116.324 45.6818C116.324 45.0985 116.231 44.5549 116.045 44.0511C115.86 43.5473 115.574 43.1402 115.188 42.8295C114.801 42.5189 114.309 42.3636 113.71 42.3636C113.112 42.3636 112.619 42.5189 112.233 42.8295C111.847 43.1402 111.561 43.5473 111.375 44.0511C111.189 44.5549 111.097 45.0985 111.097 45.6818C111.097 46.2652 111.189 46.8068 111.375 47.3068C111.561 47.8068 111.847 48.2102 112.233 48.517C112.619 48.8239 113.112 48.9773 113.71 48.9773ZM119.712 50V41.2727H121.007V42.5909H121.098C121.257 42.1591 121.545 41.8087 121.962 41.5398C122.378 41.2708 122.848 41.1364 123.371 41.1364C123.469 41.1364 123.592 41.1383 123.74 41.142C123.888 41.1458 124 41.1515 124.075 41.1591V42.5227C124.03 42.5114 123.926 42.4943 123.763 42.4716C123.604 42.4451 123.435 42.4318 123.257 42.4318C122.833 42.4318 122.454 42.5208 122.121 42.6989C121.791 42.8731 121.53 43.1155 121.337 43.4261C121.147 43.733 121.053 44.0833 121.053 44.4773V50H119.712ZM131.506 44.75V50H130.165V41.2727H131.46V42.6364H131.574C131.778 42.1932 132.089 41.8371 132.506 41.5682C132.922 41.2955 133.46 41.1591 134.119 41.1591C134.71 41.1591 135.227 41.2803 135.67 41.5227C136.114 41.7614 136.458 42.125 136.705 42.6136C136.951 43.0985 137.074 43.7121 137.074 44.4545V50H135.733V44.5455C135.733 43.8598 135.555 43.3258 135.199 42.9432C134.843 42.5568 134.354 42.3636 133.733 42.3636C133.305 42.3636 132.922 42.4564 132.585 42.642C132.252 42.8277 131.989 43.0985 131.795 43.4545C131.602 43.8106 131.506 44.2424 131.506 44.75ZM143.183 50.1818C142.342 50.1818 141.617 49.9962 141.007 49.625C140.401 49.25 139.933 48.7273 139.604 48.0568C139.278 47.3826 139.115 46.5985 139.115 45.7045C139.115 44.8106 139.278 44.0227 139.604 43.3409C139.933 42.6553 140.392 42.1212 140.979 41.7386C141.57 41.3523 142.259 41.1591 143.047 41.1591C143.501 41.1591 143.95 41.2348 144.393 41.3864C144.837 41.5379 145.24 41.7841 145.604 42.125C145.967 42.4621 146.257 42.9091 146.473 43.4659C146.689 44.0227 146.797 44.7083 146.797 45.5227V46.0909H140.07V44.9318H145.433C145.433 44.4394 145.335 44 145.138 43.6136C144.945 43.2273 144.668 42.9223 144.308 42.6989C143.952 42.4754 143.532 42.3636 143.047 42.3636C142.513 42.3636 142.051 42.4962 141.661 42.7614C141.274 43.0227 140.977 43.3636 140.768 43.7841C140.56 44.2045 140.456 44.6553 140.456 45.1364V45.9091C140.456 46.5682 140.57 47.1269 140.797 47.5852C141.028 48.0398 141.348 48.3864 141.757 48.625C142.166 48.8598 142.642 48.9773 143.183 48.9773C143.536 48.9773 143.854 48.928 144.138 48.8295C144.426 48.7273 144.674 48.5758 144.882 48.375C145.09 48.1705 145.251 47.9167 145.365 47.6136L146.661 47.9773C146.524 48.4167 146.295 48.803 145.973 49.1364C145.651 49.4659 145.253 49.7235 144.78 49.9091C144.306 50.0909 143.774 50.1818 143.183 50.1818ZM150.814 50L148.155 41.2727H149.564L151.45 47.9545H151.541L153.405 41.2727H154.837L156.678 47.9318H156.768L158.655 41.2727H160.064L157.405 50H156.087L154.178 43.2955H154.041L152.132 50H150.814ZM166.337 53.2727V41.2727H167.632V42.6591H167.791C167.89 42.5076 168.026 42.3144 168.2 42.0795C168.378 41.8409 168.632 41.6288 168.962 41.4432C169.295 41.2538 169.746 41.1591 170.314 41.1591C171.049 41.1591 171.696 41.3428 172.257 41.7102C172.818 42.0777 173.255 42.5985 173.57 43.2727C173.884 43.947 174.041 44.7424 174.041 45.6591C174.041 46.5833 173.884 47.3845 173.57 48.0625C173.255 48.7367 172.82 49.2595 172.263 49.6307C171.706 49.9981 171.064 50.1818 170.337 50.1818C169.776 50.1818 169.327 50.089 168.99 49.9034C168.653 49.714 168.393 49.5 168.212 49.2614C168.03 49.0189 167.89 48.8182 167.791 48.6591H167.678V53.2727H166.337ZM167.655 45.6364C167.655 46.2955 167.751 46.8769 167.945 47.3807C168.138 47.8807 168.42 48.2727 168.791 48.5568C169.162 48.8371 169.617 48.9773 170.155 48.9773C170.715 48.9773 171.183 48.8295 171.558 48.5341C171.937 48.2348 172.221 47.8333 172.411 47.3295C172.604 46.822 172.7 46.2576 172.7 45.6364C172.7 45.0227 172.606 44.4697 172.416 43.9773C172.231 43.4811 171.948 43.089 171.57 42.8011C171.195 42.5095 170.723 42.3636 170.155 42.3636C169.609 42.3636 169.151 42.5019 168.78 42.7784C168.409 43.0511 168.128 43.4337 167.939 43.9261C167.75 44.4148 167.655 44.9848 167.655 45.6364ZM176.087 50V41.2727H177.382V42.5909H177.473C177.632 42.1591 177.92 41.8087 178.337 41.5398C178.753 41.2708 179.223 41.1364 179.746 41.1364C179.844 41.1364 179.967 41.1383 180.115 41.142C180.263 41.1458 180.375 41.1515 180.45 41.1591V42.5227C180.405 42.5114 180.301 42.4943 180.138 42.4716C179.979 42.4451 179.81 42.4318 179.632 42.4318C179.208 42.4318 178.829 42.5208 178.496 42.6989C178.166 42.8731 177.905 43.1155 177.712 43.4261C177.522 43.733 177.428 44.0833 177.428 44.4773V50H176.087ZM185.32 50.1818C184.532 50.1818 183.84 49.9943 183.246 49.6193C182.655 49.2443 182.193 48.7197 181.859 48.0455C181.53 47.3712 181.365 46.5833 181.365 45.6818C181.365 44.7727 181.53 43.9792 181.859 43.3011C182.193 42.6231 182.655 42.0966 183.246 41.7216C183.84 41.3466 184.532 41.1591 185.32 41.1591C186.107 41.1591 186.797 41.3466 187.388 41.7216C187.982 42.0966 188.445 42.6231 188.774 43.3011C189.107 43.9792 189.274 44.7727 189.274 45.6818C189.274 46.5833 189.107 47.3712 188.774 48.0455C188.445 48.7197 187.982 49.2443 187.388 49.6193C186.797 49.9943 186.107 50.1818 185.32 50.1818ZM185.32 48.9773C185.918 48.9773 186.411 48.8239 186.797 48.517C187.183 48.2102 187.469 47.8068 187.655 47.3068C187.84 46.8068 187.933 46.2652 187.933 45.6818C187.933 45.0985 187.84 44.5549 187.655 44.0511C187.469 43.5473 187.183 43.1402 186.797 42.8295C186.411 42.5189 185.918 42.3636 185.32 42.3636C184.721 42.3636 184.229 42.5189 183.842 42.8295C183.456 43.1402 183.17 43.5473 182.984 44.0511C182.799 44.5549 182.706 45.0985 182.706 45.6818C182.706 46.2652 182.799 46.8068 182.984 47.3068C183.17 47.8068 183.456 48.2102 183.842 48.517C184.229 48.8239 184.721 48.9773 185.32 48.9773ZM191.321 41.2727H192.662V50.6364C192.662 51.1742 192.569 51.6402 192.384 52.0341C192.202 52.428 191.925 52.733 191.554 52.9489C191.187 53.1648 190.723 53.2727 190.162 53.2727C190.116 53.2727 190.071 53.2727 190.026 53.2727C189.98 53.2727 189.935 53.2727 189.889 53.2727V52.0227C189.935 52.0227 189.976 52.0227 190.014 52.0227C190.052 52.0227 190.094 52.0227 190.139 52.0227C190.548 52.0227 190.848 51.9015 191.037 51.6591C191.226 51.4205 191.321 51.0795 191.321 50.6364V41.2727ZM191.98 39.8182C191.719 39.8182 191.493 39.7292 191.304 39.5511C191.118 39.3731 191.026 39.1591 191.026 38.9091C191.026 38.6591 191.118 38.4451 191.304 38.267C191.493 38.089 191.719 38 191.98 38C192.241 38 192.465 38.089 192.651 38.267C192.84 38.4451 192.935 38.6591 192.935 38.9091C192.935 39.1591 192.84 39.3731 192.651 39.5511C192.465 39.7292 192.241 39.8182 191.98 39.8182ZM198.777 50.1818C197.936 50.1818 197.211 49.9962 196.601 49.625C195.995 49.25 195.527 48.7273 195.197 48.0568C194.872 47.3826 194.709 46.5985 194.709 45.7045C194.709 44.8106 194.872 44.0227 195.197 43.3409C195.527 42.6553 195.985 42.1212 196.572 41.7386C197.163 41.3523 197.853 41.1591 198.641 41.1591C199.095 41.1591 199.544 41.2348 199.987 41.3864C200.43 41.5379 200.834 41.7841 201.197 42.125C201.561 42.4621 201.851 42.9091 202.067 43.4659C202.283 44.0227 202.391 44.7083 202.391 45.5227V46.0909H195.663V44.9318H201.027C201.027 44.4394 200.929 44 200.732 43.6136C200.538 43.2273 200.262 42.9223 199.902 42.6989C199.546 42.4754 199.125 42.3636 198.641 42.3636C198.107 42.3636 197.644 42.4962 197.254 42.7614C196.868 43.0227 196.571 43.3636 196.362 43.7841C196.154 44.2045 196.05 44.6553 196.05 45.1364V45.9091C196.05 46.5682 196.163 47.1269 196.391 47.5852C196.622 48.0398 196.942 48.3864 197.351 48.625C197.76 48.8598 198.235 48.9773 198.777 48.9773C199.129 48.9773 199.447 48.928 199.732 48.8295C200.019 48.7273 200.268 48.5758 200.476 48.375C200.684 48.1705 200.845 47.9167 200.959 47.6136L202.254 47.9773C202.118 48.4167 201.889 48.803 201.567 49.1364C201.245 49.4659 200.847 49.7235 200.374 49.9091C199.9 50.0909 199.368 50.1818 198.777 50.1818ZM207.976 50.1818C207.158 50.1818 206.453 49.9886 205.862 49.6023C205.271 49.2159 204.817 48.6837 204.499 48.0057C204.18 47.3277 204.021 46.553 204.021 45.6818C204.021 44.7955 204.184 44.0133 204.51 43.3352C204.839 42.6534 205.298 42.1212 205.885 41.7386C206.476 41.3523 207.165 41.1591 207.953 41.1591C208.567 41.1591 209.12 41.2727 209.612 41.5C210.105 41.7273 210.508 42.0455 210.822 42.4545C211.137 42.8636 211.332 43.3409 211.408 43.8864H210.067C209.964 43.4886 209.737 43.1364 209.385 42.8295C209.036 42.5189 208.567 42.3636 207.976 42.3636C207.453 42.3636 206.995 42.5 206.601 42.7727C206.211 43.0417 205.906 43.4223 205.686 43.9148C205.47 44.4034 205.362 44.9773 205.362 45.6364C205.362 46.3106 205.468 46.8977 205.68 47.3977C205.896 47.8977 206.199 48.286 206.589 48.5625C206.983 48.839 207.446 48.9773 207.976 48.9773C208.324 48.9773 208.641 48.9167 208.925 48.7955C209.209 48.6742 209.449 48.5 209.646 48.2727C209.843 48.0455 209.983 47.7727 210.067 47.4545H211.408C211.332 47.9697 211.144 48.4337 210.845 48.8466C210.55 49.2557 210.158 49.5814 209.669 49.8239C209.184 50.0625 208.62 50.1818 207.976 50.1818ZM217.163 41.2727V42.4091H212.641V41.2727H217.163ZM213.959 39.1818H215.3V47.5C215.3 47.8788 215.355 48.1629 215.464 48.3523C215.578 48.5379 215.722 48.6629 215.896 48.7273C216.074 48.7879 216.262 48.8182 216.459 48.8182C216.607 48.8182 216.728 48.8106 216.822 48.7955C216.917 48.7765 216.993 48.7614 217.05 48.75L217.322 49.9545C217.232 49.9886 217.105 50.0227 216.942 50.0568C216.779 50.0947 216.572 50.1136 216.322 50.1136C215.944 50.1136 215.572 50.0322 215.209 49.8693C214.849 49.7064 214.55 49.4583 214.311 49.125C214.076 48.7917 213.959 48.3712 213.959 47.8636V39.1818ZM225.206 43.2273L224.001 43.5682C223.926 43.3674 223.814 43.1723 223.666 42.983C223.522 42.7898 223.325 42.6307 223.075 42.5057C222.825 42.3807 222.505 42.3182 222.115 42.3182C221.581 42.3182 221.136 42.4413 220.78 42.6875C220.428 42.9299 220.251 43.2386 220.251 43.6136C220.251 43.947 220.373 44.2102 220.615 44.4034C220.857 44.5966 221.236 44.7576 221.751 44.8864L223.047 45.2045C223.827 45.3939 224.409 45.6837 224.791 46.0739C225.174 46.4602 225.365 46.9583 225.365 47.5682C225.365 48.0682 225.221 48.5152 224.933 48.9091C224.649 49.303 224.251 49.6136 223.74 49.8409C223.229 50.0682 222.634 50.1818 221.956 50.1818C221.066 50.1818 220.329 49.9886 219.746 49.6023C219.162 49.2159 218.793 48.6515 218.638 47.9091L219.911 47.5909C220.032 48.0606 220.261 48.4129 220.598 48.6477C220.939 48.8826 221.384 49 221.933 49C222.558 49 223.054 48.8674 223.422 48.6023C223.793 48.3333 223.979 48.0114 223.979 47.6364C223.979 47.3333 223.873 47.0795 223.661 46.875C223.448 46.6667 223.123 46.5114 222.683 46.4091L221.229 46.0682C220.429 45.8788 219.842 45.5852 219.467 45.1875C219.096 44.786 218.911 44.2841 218.911 43.6818C218.911 43.1894 219.049 42.7538 219.325 42.375C219.606 41.9962 219.986 41.6989 220.467 41.483C220.952 41.267 221.501 41.1591 222.115 41.1591C222.979 41.1591 223.657 41.3485 224.149 41.7273C224.645 42.1061 224.998 42.6061 225.206 43.2273Z" fill="#D1D5DB"/>
</svg>
