<svg width="37" height="36" viewBox="0 0 37 36" fill="none" xmlns="http://www.w3.org/2000/svg">
<path d="M11.5 11.5C11.5 10.5717 11.8687 9.6815 12.5251 9.02513C13.1815 8.36875 14.0717 8 15 8H18.5V15H15C14.0717 15 13.1815 14.6313 12.5251 13.9749C11.8687 13.3185 11.5 12.4283 11.5 11.5Z" stroke="#D1D5DB" stroke-width="2" stroke-linecap="round" stroke-linejoin="round"/>
<path d="M18.5 8H22C22.4596 8 22.9148 8.09053 23.3394 8.26642C23.764 8.44231 24.1499 8.70012 24.4749 9.02513C24.7999 9.35013 25.0577 9.73597 25.2336 10.1606C25.4095 10.5852 25.5 11.0404 25.5 11.5C25.5 11.9596 25.4095 12.4148 25.2336 12.8394C25.0577 13.264 24.7999 13.6499 24.4749 13.9749C24.1499 14.2999 23.764 14.5577 23.3394 14.7336C22.9148 14.9095 22.4596 15 22 15H18.5V8Z" stroke="#D1D5DB" stroke-width="2" stroke-linecap="round" stroke-linejoin="round"/>
<path d="M18.5 18.5C18.5 18.0404 18.5905 17.5852 18.7664 17.1606C18.9423 16.736 19.2001 16.3501 19.5251 16.0251C19.8501 15.7001 20.236 15.4423 20.6606 15.2664C21.0852 15.0905 21.5404 15 22 15C22.4596 15 22.9148 15.0905 23.3394 15.2664C23.764 15.4423 24.1499 15.7001 24.4749 16.0251C24.7999 16.3501 25.0577 16.736 25.2336 17.1606C25.4095 17.5852 25.5 18.0404 25.5 18.5C25.5 18.9596 25.4095 19.4148 25.2336 19.8394C25.0577 20.264 24.7999 20.6499 24.4749 20.9749C24.1499 21.2999 23.764 21.5577 23.3394 21.7336C22.9148 21.9095 22.4596 22 22 22C21.5404 22 21.0852 21.9095 20.6606 21.7336C20.236 21.5577 19.8501 21.2999 19.5251 20.9749C19.2001 20.6499 18.9423 20.264 18.7664 19.8394C18.5905 19.4148 18.5 18.9596 18.5 18.5Z" stroke="#D1D5DB" stroke-width="2" stroke-linecap="round" stroke-linejoin="round"/>
<path d="M11.5 25.5C11.5 24.5717 11.8687 23.6815 12.5251 23.0251C13.1815 22.3687 14.0717 22 15 22H18.5V25.5C18.5 26.4283 18.1313 27.3185 17.4749 27.9749C16.8185 28.6313 15.9283 29 15 29C14.0717 29 13.1815 28.6313 12.5251 27.9749C11.8687 27.3185 11.5 26.4283 11.5 25.5Z" stroke="#D1D5DB" stroke-width="2" stroke-linecap="round" stroke-linejoin="round"/>
<path d="M11.5 18.5C11.5 17.5717 11.8687 16.6815 12.5251 16.0251C13.1815 15.3687 14.0717 15 15 15H18.5V22H15C14.0717 22 13.1815 21.6313 12.5251 20.9749C11.8687 20.3185 11.5 19.4283 11.5 18.5Z" stroke="#D1D5DB" stroke-width="2" stroke-linecap="round" stroke-linejoin="round"/>
</svg>
