<svg width="116" height="36" viewBox="0 0 116 36" fill="none" xmlns="http://www.w3.org/2000/svg">
<g clip-path="url(#clip0_327_2168)">
<path d="M20.9998 28V24C21.1389 22.7473 20.7797 21.4901 19.9998 20.5C22.9998 20.5 25.9998 18.5 25.9998 15C26.0798 13.75 25.7298 12.52 24.9998 11.5C25.2798 10.35 25.2798 9.15 24.9998 8C24.9998 8 23.9998 8 21.9998 9.5C19.3598 9 16.6398 9 13.9998 9.5C11.9998 8 10.9998 8 10.9998 8C10.6998 9.15 10.6998 10.35 10.9998 11.5C10.2717 12.5159 9.91827 13.7528 9.99979 15C9.99979 18.5 12.9998 20.5 15.9998 20.5C15.6098 20.99 15.3198 21.55 15.1498 22.15C14.9798 22.75 14.9298 23.38 14.9998 24V28" stroke="#D1D5DB" stroke-width="2" stroke-linecap="round" stroke-linejoin="round"/>
<path d="M15 24C10.49 26 10 22 8 22" stroke="#D1D5DB" stroke-width="2" stroke-linecap="round" stroke-linejoin="round"/>
<path d="M68 9.99999C68 9.99999 67.3 12.1 66 13.4C67.6 23.4 56.6 30.7 48 25C50.2 25.1 52.4 24.4 54 23C49 21.5 46.5 15.6 49 11C51.2 13.6 54.6 15.1 58 15C57.1 10.8 62 8.39999 65 11.2C66.1 11.2 68 9.99999 68 9.99999Z" stroke="#D1D5DB" stroke-width="2" stroke-linecap="round" stroke-linejoin="round"/>
<path d="M91 11.5C91 10.5717 91.3687 9.6815 92.0251 9.02513C92.6815 8.36875 93.5717 8 94.5 8H98V15H94.5C93.5717 15 92.6815 14.6313 92.0251 13.9749C91.3687 13.3185 91 12.4283 91 11.5Z" stroke="#D1D5DB" stroke-width="2" stroke-linecap="round" stroke-linejoin="round"/>
<path d="M98 8H101.5C101.96 8 102.415 8.09053 102.839 8.26642C103.264 8.44231 103.65 8.70012 103.975 9.02513C104.3 9.35013 104.558 9.73597 104.734 10.1606C104.909 10.5852 105 11.0404 105 11.5C105 11.9596 104.909 12.4148 104.734 12.8394C104.558 13.264 104.3 13.6499 103.975 13.9749C103.65 14.2999 103.264 14.5577 102.839 14.7336C102.415 14.9095 101.96 15 101.5 15H98V8Z" stroke="#D1D5DB" stroke-width="2" stroke-linecap="round" stroke-linejoin="round"/>
<path d="M98 18.5C98 18.0404 98.0905 17.5852 98.2664 17.1606C98.4423 16.736 98.7001 16.3501 99.0251 16.0251C99.3501 15.7001 99.736 15.4423 100.161 15.2664C100.585 15.0905 101.04 15 101.5 15C101.96 15 102.415 15.0905 102.839 15.2664C103.264 15.4423 103.65 15.7001 103.975 16.0251C104.3 16.3501 104.558 16.736 104.734 17.1606C104.909 17.5852 105 18.0404 105 18.5C105 18.9596 104.909 19.4148 104.734 19.8394C104.558 20.264 104.3 20.6499 103.975 20.9749C103.65 21.2999 103.264 21.5577 102.839 21.7336C102.415 21.9095 101.96 22 101.5 22C101.04 22 100.585 21.9095 100.161 21.7336C99.736 21.5577 99.3501 21.2999 99.0251 20.9749C98.7001 20.6499 98.4423 20.264 98.2664 19.8394C98.0905 19.4148 98 18.9596 98 18.5Z" stroke="#D1D5DB" stroke-width="2" stroke-linecap="round" stroke-linejoin="round"/>
<path d="M91 25.5C91 24.5717 91.3687 23.6815 92.0251 23.0251C92.6815 22.3687 93.5717 22 94.5 22H98V25.5C98 26.4283 97.6313 27.3185 96.9749 27.9749C96.3185 28.6313 95.4283 29 94.5 29C93.5717 29 92.6815 28.6313 92.0251 27.9749C91.3687 27.3185 91 26.4283 91 25.5Z" stroke="#D1D5DB" stroke-width="2" stroke-linecap="round" stroke-linejoin="round"/>
<path d="M91 18.5C91 17.5717 91.3687 16.6815 92.0251 16.0251C92.6815 15.3687 93.5717 15 94.5 15H98V22H94.5C93.5717 22 92.6815 21.6313 92.0251 20.9749C91.3687 20.3185 91 19.4283 91 18.5Z" stroke="#D1D5DB" stroke-width="2" stroke-linecap="round" stroke-linejoin="round"/>
</g>
<defs>
<clipPath id="clip0_327_2168">
<rect width="116" height="36" fill="white"/>
</clipPath>
</defs>
</svg>
