<svg width="70" height="96" viewBox="0 0 70 96" fill="none" xmlns="http://www.w3.org/2000/svg">
<g clip-path="url(#clip0_327_2218)">
<g clip-path="url(#clip1_327_2218)">
<path d="M35.0908 38.7725C38.7631 38.7725 41.7401 35.7404 41.7401 32C41.7401 28.2597 38.7631 25.2275 35.0908 25.2275C31.4184 25.2275 28.4414 28.2597 28.4414 32C28.4414 35.7404 31.4184 38.7725 35.0908 38.7725Z" fill="#087EA4"/>
<path d="M35.0905 47.2382C53.4522 47.2382 68.3373 40.4158 68.3373 32.0001C68.3373 23.5843 53.4522 16.762 35.0905 16.762C16.7288 16.762 1.84375 23.5843 1.84375 32.0001C1.84375 40.4158 16.7288 47.2382 35.0905 47.2382Z" stroke="#087EA4" stroke-width="3"/>
<path d="M22.1339 39.619C31.3148 55.8152 44.5582 65.5336 51.7139 61.3257C58.8697 57.1178 57.228 40.5771 48.0472 24.3809C38.8664 8.18475 25.6229 -1.53366 18.4672 2.67422C11.3114 6.88211 12.9531 23.4228 22.1339 39.619Z" stroke="#087EA4" stroke-width="3"/>
<path d="M22.1338 24.3808C12.9529 40.577 11.3113 57.1177 18.467 61.3256C25.6228 65.5335 38.8662 55.8151 48.047 39.6189C57.2279 23.4228 58.8695 6.88205 51.7138 2.67416C44.558 -1.53372 31.3146 8.18469 22.1338 24.3808Z" stroke="#087EA4" stroke-width="3"/>
</g>
<path d="M14.4999 90V78.3636H18.4317C19.3408 78.3636 20.087 78.5189 20.6704 78.8295C21.2537 79.1364 21.6855 79.5587 21.9658 80.0966C22.2461 80.6345 22.3863 81.2462 22.3863 81.9318C22.3863 82.6174 22.2461 83.2254 21.9658 83.7557C21.6855 84.286 21.2556 84.7027 20.676 85.0057C20.0965 85.3049 19.356 85.4545 18.4545 85.4545H15.2726V84.1818H18.409C19.0302 84.1818 19.5302 84.0909 19.909 83.9091C20.2916 83.7273 20.5681 83.4697 20.7385 83.1364C20.9128 82.7992 20.9999 82.3977 20.9999 81.9318C20.9999 81.4659 20.9128 81.0587 20.7385 80.7102C20.5643 80.3617 20.2859 80.0928 19.9033 79.9034C19.5207 79.7102 19.0151 79.6136 18.3863 79.6136H15.909V90H14.4999ZM19.9772 84.7727L22.8408 90H21.2045L18.3863 84.7727H19.9772ZM28.1178 90.1818C27.2769 90.1818 26.5515 89.9962 25.9417 89.625C25.3356 89.25 24.8678 88.7273 24.5383 88.0568C24.2125 87.3826 24.0496 86.5985 24.0496 85.7045C24.0496 84.8106 24.2125 84.0227 24.5383 83.3409C24.8678 82.6553 25.3261 82.1212 25.9133 81.7386C26.5042 81.3523 27.1936 81.1591 27.9814 81.1591C28.436 81.1591 28.8849 81.2348 29.328 81.3864C29.7712 81.5379 30.1746 81.7841 30.5383 82.125C30.9019 82.4621 31.1917 82.9091 31.4076 83.4659C31.6235 84.0227 31.7314 84.7083 31.7314 85.5227V86.0909H25.0042V84.9318H30.3678C30.3678 84.4394 30.2693 84 30.0724 83.6136C29.8792 83.2273 29.6027 82.9223 29.2428 82.6989C28.8867 82.4754 28.4663 82.3636 27.9814 82.3636C27.4474 82.3636 26.9852 82.4962 26.5951 82.7614C26.2087 83.0227 25.9114 83.3636 25.703 83.7841C25.4947 84.2045 25.3905 84.6553 25.3905 85.1364V85.9091C25.3905 86.5682 25.5042 87.1269 25.7314 87.5852C25.9625 88.0398 26.2826 88.3864 26.6917 88.625C27.1008 88.8598 27.5761 88.9773 28.1178 88.9773C28.4701 88.9773 28.7883 88.928 29.0724 88.8295C29.3602 88.7273 29.6083 88.5758 29.8167 88.375C30.025 88.1705 30.186 87.9167 30.2996 87.6136L31.5951 87.9773C31.4587 88.4167 31.2296 88.803 30.9076 89.1364C30.5856 89.4659 30.1879 89.7235 29.7144 89.9091C29.2409 90.0909 28.7087 90.1818 28.1178 90.1818ZM36.3394 90.2045C35.7864 90.2045 35.2845 90.1004 34.8337 89.892C34.383 89.6799 34.025 89.375 33.7599 88.9773C33.4947 88.5758 33.3621 88.0909 33.3621 87.5227C33.3621 87.0227 33.4606 86.6174 33.6576 86.3068C33.8546 85.9924 34.1178 85.7462 34.4474 85.5682C34.7769 85.3902 35.1405 85.2576 35.5383 85.1705C35.9398 85.0795 36.3432 85.0076 36.7485 84.9545C37.2788 84.8864 37.7087 84.8352 38.0383 84.8011C38.3716 84.7633 38.614 84.7008 38.7655 84.6136C38.9208 84.5265 38.9985 84.375 38.9985 84.1591V84.1136C38.9985 83.553 38.8451 83.1174 38.5383 82.8068C38.2352 82.4962 37.775 82.3409 37.1576 82.3409C36.5174 82.3409 36.0155 82.4811 35.6519 82.7614C35.2883 83.0417 35.0326 83.3409 34.8849 83.6591L33.6121 83.2045C33.8394 82.6742 34.1424 82.2614 34.5212 81.9659C34.9038 81.6667 35.3205 81.4583 35.7712 81.3409C36.2258 81.2197 36.6727 81.1591 37.1121 81.1591C37.3924 81.1591 37.7144 81.1932 38.078 81.2614C38.4455 81.3258 38.7996 81.4602 39.1405 81.6648C39.4852 81.8693 39.7712 82.178 39.9985 82.5909C40.2258 83.0038 40.3394 83.5568 40.3394 84.25V90H38.9985V88.8182H38.9303C38.8394 89.0076 38.6879 89.2102 38.4758 89.4261C38.2636 89.642 37.9814 89.8258 37.6292 89.9773C37.2769 90.1288 36.847 90.2045 36.3394 90.2045ZM36.5439 89C37.0742 89 37.5212 88.8958 37.8849 88.6875C38.2523 88.4792 38.5288 88.2102 38.7144 87.8807C38.9038 87.5511 38.9985 87.2045 38.9985 86.8409V85.6136C38.9417 85.6818 38.8167 85.7443 38.6235 85.8011C38.4341 85.8542 38.2144 85.9015 37.9644 85.9432C37.7182 85.9811 37.4777 86.0152 37.2428 86.0455C37.0117 86.072 36.8242 86.0947 36.6803 86.1136C36.3318 86.1591 36.0061 86.233 35.703 86.3352C35.4038 86.4337 35.1614 86.5833 34.9758 86.7841C34.7939 86.9811 34.703 87.25 34.703 87.5909C34.703 88.0568 34.8754 88.4091 35.2201 88.6477C35.5686 88.8826 36.0099 89 36.5439 89ZM46.3323 90.1818C45.5141 90.1818 44.8096 89.9886 44.2187 89.6023C43.6278 89.2159 43.1732 88.6837 42.855 88.0057C42.5368 87.3277 42.3778 86.553 42.3778 85.6818C42.3778 84.7955 42.5406 84.0133 42.8664 83.3352C43.1959 82.6534 43.6543 82.1212 44.2414 81.7386C44.8323 81.3523 45.5217 81.1591 46.3096 81.1591C46.9232 81.1591 47.4762 81.2727 47.9687 81.5C48.4611 81.7273 48.8645 82.0455 49.1789 82.4545C49.4933 82.8636 49.6884 83.3409 49.7641 83.8864H48.4232C48.3209 83.4886 48.0937 83.1364 47.7414 82.8295C47.3929 82.5189 46.9232 82.3636 46.3323 82.3636C45.8096 82.3636 45.3512 82.5 44.9573 82.7727C44.5671 83.0417 44.2622 83.4223 44.0425 83.9148C43.8266 84.4034 43.7187 84.9773 43.7187 85.6364C43.7187 86.3106 43.8247 86.8977 44.0368 87.3977C44.2528 87.8977 44.5558 88.286 44.9459 88.5625C45.3399 88.839 45.802 88.9773 46.3323 88.9773C46.6808 88.9773 46.9971 88.9167 47.2812 88.7955C47.5653 88.6742 47.8058 88.5 48.0028 88.2727C48.1997 88.0455 48.3399 87.7727 48.4232 87.4545H49.7641C49.6884 87.9697 49.5009 88.4337 49.2016 88.8466C48.9062 89.2557 48.5141 89.5814 48.0255 89.8239C47.5406 90.0625 46.9762 90.1818 46.3323 90.1818ZM55.5198 81.2727V82.4091H50.9971V81.2727H55.5198ZM52.3153 79.1818H53.6562V87.5C53.6562 87.8788 53.7111 88.1629 53.8209 88.3523C53.9346 88.5379 54.0785 88.6629 54.2528 88.7273C54.4308 88.7879 54.6183 88.8182 54.8153 88.8182C54.963 88.8182 55.0842 88.8106 55.1789 88.7955C55.2736 88.7765 55.3493 88.7614 55.4062 88.75L55.6789 89.9545C55.588 89.9886 55.4611 90.0227 55.2982 90.0568C55.1353 90.0947 54.9289 90.1136 54.6789 90.1136C54.3001 90.1136 53.9289 90.0322 53.5653 89.8693C53.2054 89.7064 52.9062 89.4583 52.6675 89.125C52.4327 88.7917 52.3153 88.3712 52.3153 87.8636V79.1818Z" fill="#D1D5DB"/>
</g>
<defs>
<clipPath id="clip0_327_2218">
<rect width="69.8182" height="96" fill="white" transform="translate(0.181641)"/>
</clipPath>
<clipPath id="clip1_327_2218">
<rect width="69.8182" height="64" fill="white" transform="translate(0.181641)"/>
</clipPath>
</defs>
</svg>
