<svg width="79" height="96" viewBox="0 0 79 96" fill="none" xmlns="http://www.w3.org/2000/svg">
<g clip-path="url(#clip0_327_2263)">
<path d="M60.7922 34.6079C58.7416 34.6186 56.9656 35.1106 55.4776 35.8452C54.9336 34.7586 54.3816 33.8026 54.2896 33.0919C54.1816 32.2626 54.0562 31.7666 54.1869 30.7786C54.3176 29.7906 54.8896 28.3906 54.8816 28.2852C54.8736 28.1799 54.7536 27.6772 53.5709 27.6679C52.3882 27.6599 51.3762 27.8959 51.2576 28.2079C51.1389 28.5199 50.9109 29.2226 50.7696 29.9559C50.5629 31.0279 48.4082 34.8532 47.1856 36.8532C46.7856 36.0719 46.4456 35.3839 46.3749 34.8399C46.2669 34.0106 46.1416 33.5146 46.2722 32.5266C46.4029 31.5386 46.9749 30.1386 46.9669 30.0332C46.9589 29.9279 46.8389 29.4252 45.6562 29.4159C44.4736 29.4079 43.4616 29.6439 43.3429 29.9559C43.2242 30.2679 43.0962 30.9972 42.8549 31.7039C42.6122 32.4092 39.7496 38.7892 38.9989 40.4439C38.6162 41.2866 38.2842 41.9639 38.0496 42.4252L38.0482 42.4226C38.0482 42.4226 38.0336 42.4532 38.0096 42.5052C37.8082 42.8986 37.6896 43.1159 37.6896 43.1159C37.6896 43.1159 37.6909 43.1186 37.6936 43.1239C37.5336 43.4132 37.3629 43.6812 37.2789 43.6812C37.2202 43.6812 37.1016 42.9119 37.3042 41.8559C37.7309 39.6426 38.7536 36.1919 38.7442 36.0719C38.7389 36.0106 38.9349 35.4092 38.0762 35.0946C37.2416 34.7892 36.9442 35.2986 36.8682 35.2999C36.7949 35.3012 36.7402 35.4799 36.7402 35.4799C36.7402 35.4799 37.6696 31.5986 34.9669 31.5986C33.2762 31.5986 30.9349 33.4479 29.7816 35.1239C29.0536 35.5212 27.4949 36.3719 25.8429 37.2799C25.2082 37.6292 24.5602 37.9852 23.9456 38.3239C23.9042 38.2772 23.8616 38.2319 23.8189 38.1852C20.5402 34.6879 14.4816 32.2146 14.7376 27.5119C14.8309 25.8026 15.4256 21.3012 26.3816 15.8426C35.3562 11.3706 42.5416 12.6012 43.7829 15.3279C45.5562 19.2252 39.9429 26.4666 30.6229 27.5119C27.0722 27.9106 25.2016 26.5332 24.7362 26.0212C24.2469 25.4812 24.1736 25.4572 23.9909 25.5586C23.6936 25.7239 23.8816 26.1999 23.9909 26.4839C24.2696 27.2079 25.4109 28.4919 27.3576 29.1319C29.0709 29.6946 33.2402 30.0026 38.2816 28.0519C43.9296 25.8679 48.3389 19.7906 47.0429 14.7119C45.7256 9.54658 37.1602 7.84791 29.0536 10.7279C24.2229 12.4426 19.0002 15.1332 15.2442 18.6452C10.7789 22.8212 10.0669 26.4572 10.3602 27.9759C11.4029 33.3732 18.8416 36.8879 21.8202 39.4919C21.6736 39.5732 21.5349 39.6492 21.4096 39.7186C19.9162 40.4572 14.2456 43.4252 12.8269 46.5599C11.2176 50.1159 13.0829 52.6679 14.3176 53.0119C18.1429 54.0759 22.0682 52.1612 24.1789 49.0146C26.2882 45.8692 26.0309 41.7719 25.0629 39.9026C25.0509 39.8799 25.0376 39.8572 25.0256 39.8332C25.4109 39.6052 25.8042 39.3732 26.1936 39.1439C26.9536 38.6972 27.7002 38.2812 28.3469 37.9292C27.9842 38.9212 27.7189 40.1119 27.5816 41.8306C27.4189 43.8492 28.2469 46.4586 29.3296 47.4852C29.8069 47.9372 30.3802 47.9479 30.7429 47.9479C32.0029 47.9479 32.5776 46.8999 33.2109 45.6599C33.9869 44.1399 34.6762 42.3692 34.6762 42.3692C34.6762 42.3692 33.8122 47.1506 36.1669 47.1506C37.0256 47.1506 37.8882 46.0372 38.2736 45.4706C38.2749 45.4772 38.2749 45.4799 38.2749 45.4799C38.2749 45.4799 38.2976 45.4426 38.3416 45.3692C38.4309 45.2332 38.4816 45.1466 38.4816 45.1466C38.4816 45.1466 38.4829 45.1372 38.4856 45.1212C38.8309 44.5226 39.5962 43.1572 40.7429 40.9052C42.2256 37.9959 43.6469 34.3506 43.6469 34.3506C43.6469 34.3506 43.7789 35.2412 44.2122 36.7159C44.4669 37.5826 45.0082 38.5412 45.4362 39.4612C45.0922 39.9386 44.8816 40.2119 44.8816 40.2119C44.8816 40.2119 44.8829 40.2172 44.8869 40.2266C44.6122 40.5919 44.3042 40.9852 43.9816 41.3692C42.8109 42.7626 41.4176 44.3546 41.2309 44.8132C41.0109 45.3546 41.0629 45.7519 41.4882 46.0732C41.7989 46.3066 42.3509 46.3439 42.9282 46.3052C43.9802 46.2346 44.7189 45.9732 45.0842 45.8146C45.6536 45.6132 46.3162 45.2972 46.9376 44.8399C48.0856 43.9959 48.7776 42.7892 48.7109 41.1892C48.6736 40.3079 48.3936 39.4346 48.0376 38.6106C48.1416 38.4612 48.2456 38.3092 48.3509 38.1572C50.1602 35.5119 51.5642 32.6052 51.5642 32.6052C51.5642 32.6052 51.6962 33.4959 52.1296 34.9706C52.3482 35.7159 52.7816 36.5306 53.1709 37.3279C51.4696 38.7106 50.4149 40.3172 50.0482 41.3706C49.3709 43.3199 49.9016 44.2026 50.8962 44.4039C51.3469 44.4946 51.9842 44.2879 52.4629 44.0852C53.0589 43.8879 53.7749 43.5586 54.4442 43.0666C55.5922 42.2226 56.6962 41.0412 56.6296 39.4426C56.5989 38.7146 56.4016 37.9919 56.1336 37.2986C57.5762 36.6972 59.4429 36.3639 61.8216 36.6412C66.9242 37.2372 67.9242 40.4226 67.7336 41.7559C67.5416 43.0892 66.4722 43.8226 66.1136 44.0439C65.7562 44.2652 65.6469 44.3426 65.6762 44.5066C65.7202 44.7452 65.8856 44.7372 66.1909 44.6852C66.6109 44.6146 68.8696 43.6012 68.9669 41.1399C69.0882 38.0119 66.0949 34.5799 60.7922 34.6079ZM21.4629 47.8666C19.7722 49.7106 17.4122 50.4066 16.3989 49.8199C15.3056 49.1866 15.7389 46.4719 17.8122 44.5146C19.0762 43.3226 20.7082 42.2239 21.7909 41.5479C22.0376 41.3999 22.3989 41.1826 22.8389 40.9186C22.9122 40.8772 22.9536 40.8546 22.9536 40.8546L22.9522 40.8519C23.0376 40.8012 23.1242 40.7492 23.2136 40.6946C23.9696 43.4799 23.2376 45.9319 21.4629 47.8666ZM33.7762 39.4972C33.1882 40.9319 31.9562 44.6039 31.2056 44.4066C30.5616 44.2372 30.1696 41.4466 31.0776 38.6999C31.5336 37.3172 32.5096 35.6652 33.0829 35.0239C34.0056 33.9919 35.0216 33.6546 35.2682 34.0732C35.5816 34.6066 34.1456 38.5972 33.7762 39.4972ZM43.9482 44.3506C43.6989 44.4812 43.4696 44.5626 43.3642 44.4999C43.2856 44.4532 43.4669 44.2812 43.4669 44.2812C43.4669 44.2812 44.7389 42.9119 45.2402 42.2892C45.5322 41.9266 45.8696 41.4959 46.2376 41.0159C46.2402 41.0639 46.2416 41.1119 46.2416 41.1586C46.2389 42.7986 44.6549 43.9052 43.9482 44.3506ZM51.7842 42.5639C51.5976 42.4319 51.6296 42.0039 52.2416 40.6692C52.4816 40.1452 53.0309 39.2639 53.9829 38.4212C54.0936 38.7679 54.1602 39.0999 54.1589 39.4092C54.1469 41.4732 52.6749 42.2439 51.7842 42.5639Z" fill="#F06292"/>
<path d="M8.40896 81.2727C8.34078 80.697 8.06426 80.25 7.57941 79.9318C7.09456 79.6136 6.49987 79.4545 5.79532 79.4545C5.28017 79.4545 4.82941 79.5379 4.44305 79.7045C4.06047 79.8712 3.76123 80.1004 3.54532 80.392C3.3332 80.6837 3.22714 81.0152 3.22714 81.3864C3.22714 81.697 3.301 81.964 3.44873 82.1875C3.60025 82.4072 3.79343 82.5909 4.02828 82.7386C4.26312 82.8826 4.50934 83.0019 4.76691 83.0966C5.02449 83.1875 5.26123 83.2614 5.47714 83.3182L6.65896 83.6364C6.96199 83.7159 7.29911 83.8258 7.67032 83.9659C8.04532 84.1061 8.40328 84.2973 8.74419 84.5398C9.08888 84.7784 9.37297 85.0852 9.59646 85.4602C9.81994 85.8352 9.93169 86.2955 9.93169 86.8409C9.93169 87.4697 9.76691 88.0379 9.43737 88.5455C9.11161 89.053 8.63434 89.4564 8.00555 89.7557C7.38055 90.0549 6.62108 90.2045 5.72714 90.2045C4.89381 90.2045 4.17222 90.0701 3.56237 89.8011C2.95631 89.5322 2.47903 89.1572 2.13055 88.6761C1.78585 88.1951 1.59078 87.6364 1.54532 87H2.99987C3.03775 87.4394 3.18547 87.803 3.44305 88.0909C3.70441 88.375 4.03396 88.5871 4.43169 88.7273C4.8332 88.8636 5.26502 88.9318 5.72714 88.9318C6.26502 88.9318 6.74797 88.8447 7.176 88.6705C7.60403 88.4924 7.94305 88.2462 8.19305 87.9318C8.44305 87.6136 8.56805 87.2424 8.56805 86.8182C8.56805 86.4318 8.46009 86.1174 8.24419 85.875C8.02828 85.6326 7.74419 85.4356 7.39191 85.2841C7.03964 85.1326 6.65896 85 6.24987 84.8864L4.81805 84.4773C3.90896 84.2159 3.18926 83.8428 2.65896 83.358C2.12865 82.8731 1.8635 82.2386 1.8635 81.4545C1.8635 80.803 2.03964 80.2348 2.39191 79.75C2.74797 79.2614 3.22525 78.8826 3.82373 78.6136C4.426 78.3409 5.09835 78.2045 5.84078 78.2045C6.59078 78.2045 7.25744 78.339 7.84078 78.608C8.42411 78.8731 8.88623 79.2367 9.22714 79.6989C9.57184 80.161 9.75366 80.6856 9.77259 81.2727H8.40896ZM14.6348 90.2045C14.0818 90.2045 13.5799 90.1004 13.1291 89.892C12.6784 89.6799 12.3204 89.375 12.0553 88.9773C11.7901 88.5758 11.6575 88.0909 11.6575 87.5227C11.6575 87.0227 11.756 86.6174 11.953 86.3068C12.15 85.9924 12.4132 85.7462 12.7428 85.5682C13.0723 85.3902 13.4359 85.2576 13.8337 85.1705C14.2352 85.0795 14.6386 85.0076 15.0439 84.9545C15.5742 84.8864 16.0041 84.8352 16.3337 84.8011C16.667 84.7633 16.9094 84.7008 17.0609 84.6136C17.2162 84.5265 17.2939 84.375 17.2939 84.1591V84.1136C17.2939 83.553 17.1405 83.1174 16.8337 82.8068C16.5306 82.4962 16.0704 82.3409 15.453 82.3409C14.8128 82.3409 14.3109 82.4811 13.9473 82.7614C13.5837 83.0417 13.328 83.3409 13.1803 83.6591L11.9075 83.2045C12.1348 82.6742 12.4378 82.2614 12.8166 81.9659C13.1992 81.6667 13.6159 81.4583 14.0666 81.3409C14.5212 81.2197 14.9681 81.1591 15.4075 81.1591C15.6878 81.1591 16.0098 81.1932 16.3734 81.2614C16.7409 81.3258 17.095 81.4602 17.4359 81.6648C17.7806 81.8693 18.0666 82.178 18.2939 82.5909C18.5212 83.0038 18.6348 83.5568 18.6348 84.25V90H17.2939V88.8182H17.2257C17.1348 89.0076 16.9833 89.2102 16.7712 89.4261C16.5591 89.642 16.2769 89.8258 15.9246 89.9773C15.5723 90.1288 15.1424 90.2045 14.6348 90.2045ZM14.8394 89C15.3697 89 15.8166 88.8958 16.1803 88.6875C16.5477 88.4792 16.8242 88.2102 17.0098 87.8807C17.1992 87.5511 17.2939 87.2045 17.2939 86.8409V85.6136C17.2371 85.6818 17.1121 85.7443 16.9189 85.8011C16.7295 85.8542 16.5098 85.9015 16.2598 85.9432C16.0136 85.9811 15.7731 86.0152 15.5382 86.0455C15.3072 86.072 15.1197 86.0947 14.9757 86.1136C14.6272 86.1591 14.3015 86.233 13.9984 86.3352C13.6992 86.4337 13.4568 86.5833 13.2712 86.7841C13.0894 86.9811 12.9984 87.25 12.9984 87.5909C12.9984 88.0568 13.1708 88.4091 13.5155 88.6477C13.864 88.8826 14.3053 89 14.8394 89ZM27.2641 83.2273L26.0595 83.5682C25.9838 83.3674 25.872 83.1723 25.7243 82.983C25.5804 82.7898 25.3834 82.6307 25.1334 82.5057C24.8834 82.3807 24.5633 82.3182 24.1732 82.3182C23.6391 82.3182 23.194 82.4413 22.8379 82.6875C22.4857 82.9299 22.3095 83.2386 22.3095 83.6136C22.3095 83.947 22.4307 84.2102 22.6732 84.4034C22.9156 84.5966 23.2944 84.7576 23.8095 84.8864L25.105 85.2045C25.8853 85.3939 26.4667 85.6837 26.8493 86.0739C27.2319 86.4602 27.4232 86.9583 27.4232 87.5682C27.4232 88.0682 27.2792 88.5152 26.9913 88.9091C26.7073 89.303 26.3095 89.6136 25.7982 89.8409C25.2868 90.0682 24.6921 90.1818 24.0141 90.1818C23.1239 90.1818 22.3872 89.9886 21.8038 89.6023C21.2205 89.2159 20.8512 88.6515 20.6959 87.9091L21.9686 87.5909C22.0898 88.0606 22.319 88.4129 22.6561 88.6477C22.997 88.8826 23.4421 89 23.9913 89C24.6163 89 25.1126 88.8674 25.48 88.6023C25.8512 88.3333 26.0368 88.0114 26.0368 87.6364C26.0368 87.3333 25.9307 87.0795 25.7186 86.875C25.5065 86.6667 25.1807 86.5114 24.7413 86.4091L23.2868 86.0682C22.4876 85.8788 21.9004 85.5852 21.5254 85.1875C21.1542 84.786 20.9686 84.2841 20.9686 83.6818C20.9686 83.1894 21.1069 82.7538 21.3834 82.375C21.6637 81.9962 22.0444 81.6989 22.5254 81.483C23.0103 81.267 23.5595 81.1591 24.1732 81.1591C25.0368 81.1591 25.7148 81.3485 26.2073 81.7273C26.7035 82.1061 27.0557 82.6061 27.2641 83.2273ZM35.6234 83.2273L34.4189 83.5682C34.3431 83.3674 34.2314 83.1723 34.0837 82.983C33.9397 82.7898 33.7428 82.6307 33.4928 82.5057C33.2428 82.3807 32.9227 82.3182 32.5325 82.3182C31.9984 82.3182 31.5534 82.4413 31.1973 82.6875C30.845 82.9299 30.6689 83.2386 30.6689 83.6136C30.6689 83.947 30.7901 84.2102 31.0325 84.4034C31.275 84.5966 31.6537 84.7576 32.1689 84.8864L33.4644 85.2045C34.2447 85.3939 34.8261 85.6837 35.2087 86.0739C35.5912 86.4602 35.7825 86.9583 35.7825 87.5682C35.7825 88.0682 35.6386 88.5152 35.3507 88.9091C35.0666 89.303 34.6689 89.6136 34.1575 89.8409C33.6462 90.0682 33.0515 90.1818 32.3734 90.1818C31.4833 90.1818 30.7466 89.9886 30.1632 89.6023C29.5799 89.2159 29.2106 88.6515 29.0553 87.9091L30.328 87.5909C30.4492 88.0606 30.6784 88.4129 31.0155 88.6477C31.3564 88.8826 31.8015 89 32.3507 89C32.9757 89 33.4719 88.8674 33.8394 88.6023C34.2106 88.3333 34.3962 88.0114 34.3962 87.6364C34.3962 87.3333 34.2901 87.0795 34.078 86.875C33.8659 86.6667 33.5401 86.5114 33.1007 86.4091L31.6462 86.0682C30.8469 85.8788 30.2598 85.5852 29.8848 85.1875C29.5136 84.786 29.328 84.2841 29.328 83.6818C29.328 83.1894 29.4662 82.7538 29.7428 82.375C30.0231 81.9962 30.4037 81.6989 30.8848 81.483C31.3697 81.267 31.9189 81.1591 32.5325 81.1591C33.3962 81.1591 34.0742 81.3485 34.5666 81.7273C35.0628 82.1061 35.4151 82.6061 35.6234 83.2273ZM41.9146 77.8182L38.1646 91.75H36.9374L40.6874 77.8182H41.9146ZM50.0496 81.2727C49.9814 80.697 49.7049 80.25 49.22 79.9318C48.7352 79.6136 48.1405 79.4545 47.4359 79.4545C46.9208 79.4545 46.47 79.5379 46.0837 79.7045C45.7011 79.8712 45.4019 80.1004 45.1859 80.392C44.9738 80.6837 44.8678 81.0152 44.8678 81.3864C44.8678 81.697 44.9416 81.964 45.0894 82.1875C45.2409 82.4072 45.4341 82.5909 45.6689 82.7386C45.9037 82.8826 46.15 83.0019 46.4075 83.0966C46.6651 83.1875 46.9019 83.2614 47.1178 83.3182L48.2996 83.6364C48.6026 83.7159 48.9397 83.8258 49.3109 83.9659C49.6859 84.1061 50.0439 84.2973 50.3848 84.5398C50.7295 84.7784 51.0136 85.0852 51.2371 85.4602C51.4606 85.8352 51.5723 86.2955 51.5723 86.8409C51.5723 87.4697 51.4075 88.0379 51.078 88.5455C50.7522 89.053 50.275 89.4564 49.6462 89.7557C49.0212 90.0549 48.2617 90.2045 47.3678 90.2045C46.5344 90.2045 45.8128 90.0701 45.203 89.8011C44.5969 89.5322 44.1197 89.1572 43.7712 88.6761C43.4265 88.1951 43.2314 87.6364 43.1859 87H44.6405C44.6784 87.4394 44.8261 87.803 45.0837 88.0909C45.345 88.375 45.6746 88.5871 46.0723 88.7273C46.4738 88.8636 46.9056 88.9318 47.3678 88.9318C47.9056 88.9318 48.3886 88.8447 48.8166 88.6705C49.2447 88.4924 49.5837 88.2462 49.8337 87.9318C50.0837 87.6136 50.2087 87.2424 50.2087 86.8182C50.2087 86.4318 50.1007 86.1174 49.8848 85.875C49.6689 85.6326 49.3848 85.4356 49.0325 85.2841C48.6803 85.1326 48.2996 85 47.8905 84.8864L46.4587 84.4773C45.5496 84.2159 44.8299 83.8428 44.2996 83.358C43.7693 82.8731 43.5041 82.2386 43.5041 81.4545C43.5041 80.803 43.6803 80.2348 44.0325 79.75C44.3886 79.2614 44.8659 78.8826 45.4644 78.6136C46.0666 78.3409 46.739 78.2045 47.4814 78.2045C48.2314 78.2045 48.8981 78.339 49.4814 78.608C50.0647 78.8731 50.5269 79.2367 50.8678 79.6989C51.2125 80.161 51.3943 80.6856 51.4132 81.2727H50.0496ZM57.2527 90.1818C56.4345 90.1818 55.73 89.9886 55.1391 89.6023C54.5482 89.2159 54.0936 88.6837 53.7754 88.0057C53.4573 87.3277 53.2982 86.553 53.2982 85.6818C53.2982 84.7955 53.461 84.0133 53.7868 83.3352C54.1163 82.6534 54.5747 82.1212 55.1618 81.7386C55.7527 81.3523 56.4421 81.1591 57.23 81.1591C57.8436 81.1591 58.3966 81.2727 58.8891 81.5C59.3815 81.7273 59.7849 82.0455 60.0993 82.4545C60.4137 82.8636 60.6088 83.3409 60.6845 83.8864H59.3436C59.2413 83.4886 59.0141 83.1364 58.6618 82.8295C58.3133 82.5189 57.8436 82.3636 57.2527 82.3636C56.73 82.3636 56.2716 82.5 55.8777 82.7727C55.4876 83.0417 55.1826 83.4223 54.9629 83.9148C54.747 84.4034 54.6391 84.9773 54.6391 85.6364C54.6391 86.3106 54.7451 86.8977 54.9573 87.3977C55.1732 87.8977 55.4762 88.286 55.8663 88.5625C56.2603 88.839 56.7224 88.9773 57.2527 88.9773C57.6012 88.9773 57.9175 88.9167 58.2016 88.7955C58.4857 88.6742 58.7262 88.5 58.9232 88.2727C59.1201 88.0455 59.2603 87.7727 59.3436 87.4545H60.6845C60.6088 87.9697 60.4213 88.4337 60.122 88.8466C59.8266 89.2557 59.4345 89.5814 58.9459 89.8239C58.461 90.0625 57.8966 90.1818 57.2527 90.1818ZM68.8266 83.2273L67.622 83.5682C67.5463 83.3674 67.4345 83.1723 67.2868 82.983C67.1429 82.7898 66.9459 82.6307 66.6959 82.5057C66.4459 82.3807 66.1258 82.3182 65.7357 82.3182C65.2016 82.3182 64.7565 82.4413 64.4004 82.6875C64.0482 82.9299 63.872 83.2386 63.872 83.6136C63.872 83.947 63.9932 84.2102 64.2357 84.4034C64.4781 84.5966 64.8569 84.7576 65.372 84.8864L66.6675 85.2045C67.4478 85.3939 68.0292 85.6837 68.4118 86.0739C68.7944 86.4602 68.9857 86.9583 68.9857 87.5682C68.9857 88.0682 68.8417 88.5152 68.5538 88.9091C68.2698 89.303 67.872 89.6136 67.3607 89.8409C66.8493 90.0682 66.2546 90.1818 65.5766 90.1818C64.6864 90.1818 63.9497 89.9886 63.3663 89.6023C62.783 89.2159 62.4137 88.6515 62.2584 87.9091L63.5311 87.5909C63.6523 88.0606 63.8815 88.4129 64.2186 88.6477C64.5595 88.8826 65.0046 89 65.5538 89C66.1788 89 66.6751 88.8674 67.0425 88.6023C67.4137 88.3333 67.5993 88.0114 67.5993 87.6364C67.5993 87.3333 67.4932 87.0795 67.2811 86.875C67.069 86.6667 66.7432 86.5114 66.3038 86.4091L64.8493 86.0682C64.0501 85.8788 63.4629 85.5852 63.0879 85.1875C62.7167 84.786 62.5311 84.2841 62.5311 83.6818C62.5311 83.1894 62.6694 82.7538 62.9459 82.375C63.2262 81.9962 63.6069 81.6989 64.0879 81.483C64.5728 81.267 65.122 81.1591 65.7357 81.1591C66.5993 81.1591 67.2773 81.3485 67.7698 81.7273C68.266 82.1061 68.6182 82.6061 68.8266 83.2273ZM77.1859 83.2273L75.9814 83.5682C75.9056 83.3674 75.7939 83.1723 75.6462 82.983C75.5022 82.7898 75.3053 82.6307 75.0553 82.5057C74.8053 82.3807 74.4852 82.3182 74.095 82.3182C73.5609 82.3182 73.1159 82.4413 72.7598 82.6875C72.4075 82.9299 72.2314 83.2386 72.2314 83.6136C72.2314 83.947 72.3526 84.2102 72.595 84.4034C72.8375 84.5966 73.2162 84.7576 73.7314 84.8864L75.0269 85.2045C75.8072 85.3939 76.3886 85.6837 76.7712 86.0739C77.1537 86.4602 77.345 86.9583 77.345 87.5682C77.345 88.0682 77.2011 88.5152 76.9132 88.9091C76.6291 89.303 76.2314 89.6136 75.72 89.8409C75.2087 90.0682 74.614 90.1818 73.9359 90.1818C73.0458 90.1818 72.3091 89.9886 71.7257 89.6023C71.1424 89.2159 70.7731 88.6515 70.6178 87.9091L71.8905 87.5909C72.0117 88.0606 72.2409 88.4129 72.578 88.6477C72.9189 88.8826 73.364 89 73.9132 89C74.5382 89 75.0344 88.8674 75.4019 88.6023C75.7731 88.3333 75.9587 88.0114 75.9587 87.6364C75.9587 87.3333 75.8526 87.0795 75.6405 86.875C75.4284 86.6667 75.1026 86.5114 74.6632 86.4091L73.2087 86.0682C72.4094 85.8788 71.8223 85.5852 71.4473 85.1875C71.0761 84.786 70.8905 84.2841 70.8905 83.6818C70.8905 83.1894 71.0287 82.7538 71.3053 82.375C71.5856 81.9962 71.9662 81.6989 72.4473 81.483C72.9322 81.267 73.4814 81.1591 74.095 81.1591C74.9587 81.1591 75.6367 81.3485 76.1291 81.7273C76.6253 82.1061 76.9776 82.6061 77.1859 83.2273Z" fill="#D1D5DB"/>
</g>
<defs>
<clipPath id="clip0_327_2263">
<rect width="78" height="96" fill="white" transform="translate(0.63623)"/>
</clipPath>
</defs>
</svg>
