<svg width="105" height="96" viewBox="0 0 105 96" fill="none" xmlns="http://www.w3.org/2000/svg">
<g clip-path="url(#clip0_327_2267)">
<g clip-path="url(#clip1_327_2267)">
<mask id="mask0_327_2267" style="mask-type:luminance" maskUnits="userSpaceOnUse" x="0" y="0" width="105" height="63">
<path d="M0.272949 0H105V62.8364H0.272949V0Z" fill="white"/>
</mask>
<g mask="url(#mask0_327_2267)">
<path fill-rule="evenodd" clip-rule="evenodd" d="M52.6366 0C38.6729 0 29.9457 6.98182 26.4548 20.9455C31.6911 13.9636 37.8002 11.3455 44.782 13.0909C48.7656 14.0858 51.6126 16.9775 54.7641 20.1755C59.8977 25.3867 65.84 31.4182 78.8184 31.4182C92.782 31.4182 101.509 24.4364 105 10.4727C99.7639 17.4545 93.6548 20.0727 86.6729 18.3273C82.6894 17.3324 79.8424 14.4407 76.6909 11.2427C71.5573 6.03151 65.615 0 52.6366 0ZM26.4548 31.4182C12.4911 31.4182 3.76386 38.4 0.272949 52.3636C5.50931 45.3818 11.6184 42.7636 18.6002 44.5091C22.5837 45.5059 25.4308 48.3956 28.5823 51.5937C33.7159 56.8048 39.6582 62.8364 52.6366 62.8364C66.6002 62.8364 75.3275 55.8545 78.8184 41.8909C73.582 48.8727 67.4729 51.4909 60.4911 49.7455C56.5076 48.7505 53.6606 45.8589 50.5091 42.6608C45.3755 37.4497 39.4332 31.4182 26.4548 31.4182Z" fill="#38BDF8"/>
</g>
</g>
<path d="M9.40945 79.6136V78.3636H18.1367V79.6136H14.4776V90H13.0685V79.6136H9.40945ZM21.5103 90.2045C20.9573 90.2045 20.4554 90.1004 20.0046 89.892C19.5539 89.6799 19.1959 89.375 18.9308 88.9773C18.6656 88.5758 18.533 88.0909 18.533 87.5227C18.533 87.0227 18.6315 86.6174 18.8285 86.3068C19.0254 85.9924 19.2887 85.7462 19.6183 85.5682C19.9478 85.3902 20.3114 85.2576 20.7092 85.1705C21.1107 85.0795 21.5141 85.0076 21.9194 84.9545C22.4497 84.8864 22.8796 84.8352 23.2092 84.8011C23.5425 84.7633 23.7849 84.7008 23.9364 84.6136C24.0917 84.5265 24.1694 84.375 24.1694 84.1591V84.1136C24.1694 83.553 24.016 83.1174 23.7092 82.8068C23.4061 82.4962 22.9459 82.3409 22.3285 82.3409C21.6883 82.3409 21.1864 82.4811 20.8228 82.7614C20.4592 83.0417 20.2035 83.3409 20.0558 83.6591L18.783 83.2045C19.0103 82.6742 19.3133 82.2614 19.6921 81.9659C20.0747 81.6667 20.4914 81.4583 20.9421 81.3409C21.3967 81.2197 21.8436 81.1591 22.283 81.1591C22.5633 81.1591 22.8853 81.1932 23.2489 81.2614C23.6164 81.3258 23.9705 81.4602 24.3114 81.6648C24.6561 81.8693 24.9421 82.178 25.1694 82.5909C25.3967 83.0038 25.5103 83.5568 25.5103 84.25V90H24.1694V88.8182H24.1012C24.0103 89.0076 23.8588 89.2102 23.6467 89.4261C23.4345 89.642 23.1523 89.8258 22.8001 89.9773C22.4478 90.1288 22.0179 90.2045 21.5103 90.2045ZM21.7148 89C22.2451 89 22.6921 88.8958 23.0558 88.6875C23.4232 88.4792 23.6997 88.2102 23.8853 87.8807C24.0747 87.5511 24.1694 87.2045 24.1694 86.8409V85.6136C24.1126 85.6818 23.9876 85.7443 23.7944 85.8011C23.605 85.8542 23.3853 85.9015 23.1353 85.9432C22.8891 85.9811 22.6486 86.0152 22.4137 86.0455C22.1826 86.072 21.9951 86.0947 21.8512 86.1136C21.5027 86.1591 21.177 86.233 20.8739 86.3352C20.5747 86.4337 20.3323 86.5833 20.1467 86.7841C19.9648 86.9811 19.8739 87.25 19.8739 87.5909C19.8739 88.0568 20.0463 88.4091 20.391 88.6477C20.7395 88.8826 21.1808 89 21.7148 89ZM27.9577 90V81.2727H29.2987V90H27.9577ZM28.6396 79.8182C28.3782 79.8182 28.1528 79.7292 27.9634 79.5511C27.7778 79.3731 27.685 79.1591 27.685 78.9091C27.685 78.6591 27.7778 78.4451 27.9634 78.267C28.1528 78.089 28.3782 78 28.6396 78C28.9009 78 29.1244 78.089 29.31 78.267C29.4994 78.4451 29.5941 78.6591 29.5941 78.9091C29.5941 79.1591 29.4994 79.3731 29.31 79.5511C29.1244 79.7292 28.9009 79.8182 28.6396 79.8182ZM33.0955 78.3636V90H31.7546V78.3636H33.0955ZM37.5288 90L34.8697 81.2727H36.2788L38.1651 87.9545H38.256L40.1197 81.2727H41.5515L43.3924 87.9318H43.4833L45.3697 81.2727H46.7788L44.1197 90H42.8015L40.8924 83.2955H40.756L38.8469 90H37.5288ZM48.5515 90V81.2727H49.8924V90H48.5515ZM49.2333 79.8182C48.9719 79.8182 48.7466 79.7292 48.5572 79.5511C48.3716 79.3731 48.2788 79.1591 48.2788 78.9091C48.2788 78.6591 48.3716 78.4451 48.5572 78.267C48.7466 78.089 48.9719 78 49.2333 78C49.4947 78 49.7182 78.089 49.9038 78.267C50.0932 78.4451 50.1879 78.6591 50.1879 78.9091C50.1879 79.1591 50.0932 79.3731 49.9038 79.5511C49.7182 79.7292 49.4947 79.8182 49.2333 79.8182ZM53.6893 84.75V90H52.3484V81.2727H53.6438V82.6364H53.7575C53.962 82.1932 54.2726 81.8371 54.6893 81.5682C55.1059 81.2955 55.6438 81.1591 56.3029 81.1591C56.8938 81.1591 57.4109 81.2803 57.854 81.5227C58.2972 81.7614 58.6419 82.125 58.8881 82.6136C59.1344 83.0985 59.2575 83.7121 59.2575 84.4545V90H57.9165V84.5455C57.9165 83.8598 57.7385 83.3258 57.3825 82.9432C57.0264 82.5568 56.5378 82.3636 55.9165 82.3636C55.4885 82.3636 55.1059 82.4564 54.7688 82.642C54.4355 82.8277 54.1722 83.0985 53.979 83.4545C53.7859 83.8106 53.6893 84.2424 53.6893 84.75ZM65.0032 90.1818C64.2759 90.1818 63.6339 89.9981 63.0771 89.6307C62.5202 89.2595 62.0846 88.7367 61.7702 88.0625C61.4558 87.3845 61.2987 86.5833 61.2987 85.6591C61.2987 84.7424 61.4558 83.947 61.7702 83.2727C62.0846 82.5985 62.5221 82.0777 63.0827 81.7102C63.6433 81.3428 64.2911 81.1591 65.0259 81.1591C65.5941 81.1591 66.043 81.2538 66.3725 81.4432C66.7058 81.6288 66.9596 81.8409 67.1339 82.0795C67.3119 82.3144 67.4502 82.5076 67.5487 82.6591H67.6623V78.3636H69.0032V90H67.7077V88.6591H67.5487C67.4502 88.8182 67.31 89.0189 67.1282 89.2614C66.9464 89.5 66.6869 89.714 66.3498 89.9034C66.0127 90.089 65.5638 90.1818 65.0032 90.1818ZM65.185 88.9773C65.7229 88.9773 66.1774 88.8371 66.5487 88.5568C66.9199 88.2727 67.2021 87.8807 67.3952 87.3807C67.5884 86.8769 67.685 86.2955 67.685 85.6364C67.685 84.9848 67.5903 84.4148 67.4009 83.9261C67.2115 83.4337 66.9312 83.0511 66.56 82.7784C66.1888 82.5019 65.7305 82.3636 65.185 82.3636C64.6168 82.3636 64.1433 82.5095 63.7646 82.8011C63.3896 83.089 63.1074 83.4811 62.918 83.9773C62.7324 84.4697 62.6396 85.0227 62.6396 85.6364C62.6396 86.2576 62.7343 86.822 62.9237 87.3295C63.1168 87.8333 63.4009 88.2348 63.7759 88.5341C64.1547 88.8295 64.6244 88.9773 65.185 88.9773ZM75.1907 90.1818C74.3725 90.1818 73.668 89.9886 73.0771 89.6023C72.4862 89.2159 72.0316 88.6837 71.7134 88.0057C71.3952 87.3277 71.2362 86.553 71.2362 85.6818C71.2362 84.7955 71.399 84.0133 71.7248 83.3352C72.0543 82.6534 72.5127 82.1212 73.0998 81.7386C73.6907 81.3523 74.3801 81.1591 75.168 81.1591C75.7816 81.1591 76.3346 81.2727 76.8271 81.5C77.3195 81.7273 77.7229 82.0455 78.0373 82.4545C78.3517 82.8636 78.5468 83.3409 78.6225 83.8864H77.2816C77.1793 83.4886 76.9521 83.1364 76.5998 82.8295C76.2513 82.5189 75.7816 82.3636 75.1907 82.3636C74.668 82.3636 74.2096 82.5 73.8157 82.7727C73.4255 83.0417 73.1206 83.4223 72.9009 83.9148C72.685 84.4034 72.5771 84.9773 72.5771 85.6364C72.5771 86.3106 72.6831 86.8977 72.8952 87.3977C73.1112 87.8977 73.4142 88.286 73.8043 88.5625C74.1983 88.839 74.6604 88.9773 75.1907 88.9773C75.5392 88.9773 75.8555 88.9167 76.1396 88.7955C76.4237 88.6742 76.6642 88.5 76.8612 88.2727C77.0581 88.0455 77.1983 87.7727 77.2816 87.4545H78.6225C78.5468 87.9697 78.3593 88.4337 78.06 88.8466C77.7646 89.2557 77.3725 89.5814 76.8839 89.8239C76.399 90.0625 75.8346 90.1818 75.1907 90.1818ZM86.7646 83.2273L85.56 83.5682C85.4843 83.3674 85.3725 83.1723 85.2248 82.983C85.0808 82.7898 84.8839 82.6307 84.6339 82.5057C84.3839 82.3807 84.0638 82.3182 83.6737 82.3182C83.1396 82.3182 82.6945 82.4413 82.3384 82.6875C81.9862 82.9299 81.81 83.2386 81.81 83.6136C81.81 83.947 81.9312 84.2102 82.1737 84.4034C82.4161 84.5966 82.7949 84.7576 83.31 84.8864L84.6055 85.2045C85.3858 85.3939 85.9672 85.6837 86.3498 86.0739C86.7324 86.4602 86.9237 86.9583 86.9237 87.5682C86.9237 88.0682 86.7797 88.5152 86.4918 88.9091C86.2077 89.303 85.81 89.6136 85.2987 89.8409C84.7873 90.0682 84.1926 90.1818 83.5146 90.1818C82.6244 90.1818 81.8877 89.9886 81.3043 89.6023C80.721 89.2159 80.3517 88.6515 80.1964 87.9091L81.4691 87.5909C81.5903 88.0606 81.8195 88.4129 82.1566 88.6477C82.4975 88.8826 82.9426 89 83.4918 89C84.1168 89 84.613 88.8674 84.9805 88.6023C85.3517 88.3333 85.5373 88.0114 85.5373 87.6364C85.5373 87.3333 85.4312 87.0795 85.2191 86.875C85.007 86.6667 84.6812 86.5114 84.2418 86.4091L82.7873 86.0682C81.988 85.8788 81.4009 85.5852 81.0259 85.1875C80.6547 84.786 80.4691 84.2841 80.4691 83.6818C80.4691 83.1894 80.6074 82.7538 80.8839 82.375C81.1642 81.9962 81.5449 81.6989 82.0259 81.483C82.5108 81.267 83.06 81.1591 83.6737 81.1591C84.5373 81.1591 85.2153 81.3485 85.7077 81.7273C86.204 82.1061 86.5562 82.6061 86.7646 83.2273ZM95.1239 83.2273L93.9194 83.5682C93.8436 83.3674 93.7319 83.1723 93.5842 82.983C93.4402 82.7898 93.2433 82.6307 92.9933 82.5057C92.7433 82.3807 92.4232 82.3182 92.033 82.3182C91.4989 82.3182 91.0539 82.4413 90.6978 82.6875C90.3455 82.9299 90.1694 83.2386 90.1694 83.6136C90.1694 83.947 90.2906 84.2102 90.533 84.4034C90.7754 84.5966 91.1542 84.7576 91.6694 84.8864L92.9648 85.2045C93.7451 85.3939 94.3266 85.6837 94.7092 86.0739C95.0917 86.4602 95.283 86.9583 95.283 87.5682C95.283 88.0682 95.1391 88.5152 94.8512 88.9091C94.5671 89.303 94.1694 89.6136 93.658 89.8409C93.1467 90.0682 92.552 90.1818 91.8739 90.1818C90.9838 90.1818 90.247 89.9886 89.6637 89.6023C89.0804 89.2159 88.7111 88.6515 88.5558 87.9091L89.8285 87.5909C89.9497 88.0606 90.1789 88.4129 90.516 88.6477C90.8569 88.8826 91.302 89 91.8512 89C92.4762 89 92.9724 88.8674 93.3398 88.6023C93.7111 88.3333 93.8967 88.0114 93.8967 87.6364C93.8967 87.3333 93.7906 87.0795 93.5785 86.875C93.3664 86.6667 93.0406 86.5114 92.6012 86.4091L91.1467 86.0682C90.3474 85.8788 89.7603 85.5852 89.3853 85.1875C89.0141 84.786 88.8285 84.2841 88.8285 83.6818C88.8285 83.1894 88.9667 82.7538 89.2433 82.375C89.5236 81.9962 89.9042 81.6989 90.3853 81.483C90.8701 81.267 91.4194 81.1591 92.033 81.1591C92.8967 81.1591 93.5747 81.3485 94.0671 81.7273C94.5633 82.1061 94.9156 82.6061 95.1239 83.2273Z" fill="#D1D5DB"/>
</g>
<defs>
<clipPath id="clip0_327_2267">
<rect width="104.727" height="96" fill="white" transform="translate(0.272949)"/>
</clipPath>
<clipPath id="clip1_327_2267">
<rect width="104.727" height="64" fill="white" transform="translate(0.272949)"/>
</clipPath>
</defs>
</svg>
