<svg width="65" height="64" viewBox="0 0 65 64" fill="none" xmlns="http://www.w3.org/2000/svg">
<rect x="0.5" width="64" height="64" rx="32" fill="#9CA3AF"/>
<path fill-rule="evenodd" clip-rule="evenodd" d="M25 22C25 20.0109 25.7902 18.1032 27.1967 16.6967C28.6032 15.2902 30.5109 14.5 32.5 14.5C34.4891 14.5 36.3968 15.2902 37.8033 16.6967C39.2098 18.1032 40 20.0109 40 22C40 23.9891 39.2098 25.8968 37.8033 27.3033C36.3968 28.7098 34.4891 29.5 32.5 29.5C30.5109 29.5 28.6032 28.7098 27.1967 27.3033C25.7902 25.8968 25 23.9891 25 22ZM18.7517 45.5083C18.8079 41.8991 20.2811 38.4568 22.8533 35.9243C25.4255 33.3918 28.8904 31.9724 32.5 31.9724C36.1096 31.9724 39.5745 33.3918 42.1467 35.9243C44.7189 38.4568 46.1921 41.8991 46.2483 45.5083C46.2527 45.7513 46.1861 45.9903 46.0567 46.196C45.9274 46.4017 45.7409 46.5653 45.52 46.6667C41.4353 48.5395 36.9936 49.5061 32.5 49.5C27.8567 49.5 23.445 48.4867 19.48 46.6667C19.2591 46.5653 19.0726 46.4017 18.9433 46.196C18.8139 45.9903 18.7473 45.7513 18.7517 45.5083Z" fill="black"/>
</svg>
